<?xml version="1.0" encoding="UTF-8"?>
<svg xmlns="http://www.w3.org/2000/svg" xmlns:xlink="http://www.w3.org/1999/xlink" viewBox="0 0 1357.36 1163.55">
  <defs>
    <style>
      .cls-1 {
        filter: url(#drop-shadow-14);
      }

      .cls-1, .cls-2, .cls-3, .cls-4, .cls-5, .cls-6, .cls-7, .cls-8, .cls-9, .cls-10, .cls-11, .cls-12, .cls-13, .cls-14 {
        fill: #757575;
      }

      .cls-15 {
        fill: #a40000;
      }

      .cls-16 {
        fill: #454747;
      }

      .cls-17 {
        stroke-width: 5.7px;
      }

      .cls-17, .cls-18, .cls-19, .cls-20, .cls-21, .cls-22, .cls-23, .cls-24, .cls-25, .cls-26, .cls-27, .cls-28, .cls-29, .cls-30, .cls-31, .cls-32, .cls-33, .cls-34, .cls-35, .cls-36, .cls-37, .cls-38 {
        fill: none;
      }

      .cls-17, .cls-18, .cls-21, .cls-23, .cls-24, .cls-27, .cls-28, .cls-29, .cls-30, .cls-31, .cls-32, .cls-33, .cls-34, .cls-35, .cls-39, .cls-37, .cls-38 {
        stroke-linecap: round;
      }

      .cls-17, .cls-19, .cls-20, .cls-21, .cls-24, .cls-25, .cls-26, .cls-27, .cls-28, .cls-40, .cls-29, .cls-30, .cls-31, .cls-32, .cls-33, .cls-41, .cls-36, .cls-39 {
        stroke-linejoin: round;
      }

      .cls-17, .cls-25 {
        stroke: #a40000;
      }

      .cls-18 {
        stroke-dasharray: 4.49 4.49;
      }

      .cls-18, .cls-20, .cls-21, .cls-23, .cls-26, .cls-31, .cls-41, .cls-35, .cls-36, .cls-39, .cls-38 {
        stroke: #2d2d2d;
      }

      .cls-18, .cls-21 {
        stroke-width: 1.4px;
      }

      .cls-18, .cls-23, .cls-34, .cls-35, .cls-37, .cls-38 {
        stroke-miterlimit: 10;
      }

      .cls-42 {
        clip-path: url(#clippath-4);
      }

      .cls-19 {
        stroke: url(#linear-gradient);
        stroke-width: 5.7px;
      }

      .cls-20, .cls-40 {
        stroke-width: 2.25px;
      }

      .cls-43 {
        fill: #20a2d5;
      }

      .cls-2 {
        filter: url(#drop-shadow-5);
      }

      .cls-44 {
        fill: #2d2d2d;
      }

      .cls-45 {
        fill: #fff;
      }

      .cls-46 {
        fill: #f0feff;
      }

      .cls-21 {
        stroke-dasharray: 5.62 4.49;
      }

      .cls-47 {
        fill: #eaf9f9;
      }

      .cls-47, .cls-48, .cls-24, .cls-32 {
        mix-blend-mode: multiply;
      }

      .cls-3 {
        filter: url(#drop-shadow-12);
      }

      .cls-4 {
        filter: url(#drop-shadow-9);
      }

      .cls-49 {
        fill: #005c95;
      }

      .cls-5 {
        filter: url(#drop-shadow-13);
      }

      .cls-48 {
        fill: #f5ffff;
      }

      .cls-23 {
        stroke-dasharray: 4.35 4.35;
      }

      .cls-50 {
        clip-path: url(#clippath-1);
      }

      .cls-51 {
        fill: #600101;
      }

      .cls-24 {
        opacity: .4;
        stroke: #a2d1e0;
      }

      .cls-24, .cls-32, .cls-36 {
        stroke-width: 2px;
      }

      .cls-25 {
        stroke-width: 5.7px;
      }

      .cls-52 {
        isolation: isolate;
      }

      .cls-6 {
        filter: url(#drop-shadow-6);
      }

      .cls-26 {
        stroke-width: 3.1px;
      }

      .cls-27 {
        stroke: #005c95;
      }

      .cls-27, .cls-33, .cls-34 {
        stroke-width: 3.87px;
      }

      .cls-53 {
        clip-path: url(#clippath-3);
      }

      .cls-54 {
        fill: #d9e0e2;
      }

      .cls-28 {
        stroke-width: 3.87px;
      }

      .cls-28, .cls-40, .cls-34 {
        stroke: #000;
      }

      .cls-7 {
        filter: url(#drop-shadow-2);
      }

      .cls-40 {
        fill: #d9e0e2;
      }

      .cls-55 {
        fill: #7c0000;
      }

      .cls-29 {
        stroke-width: 3.96px;
      }

      .cls-29, .cls-33 {
        stroke: #20a2d5;
      }

      .cls-30, .cls-37 {
        stroke: #a40000;
      }

      .cls-31 {
        stroke-width: 4.35px;
      }

      .cls-32 {
        stroke: #919191;
      }

      .cls-32, .cls-56 {
        opacity: .5;
      }

      .cls-57 {
        fill: #005c95;
      }

      .cls-58 {
        opacity: .7;
      }

      .cls-58, .cls-56 {
        fill: #b5e1f4;
      }

      .cls-41 {
        fill: #e6e6e6;
        stroke-width: 2.9px;
      }

      .cls-8 {
        filter: url(#drop-shadow-7);
      }

      .cls-59 {
        opacity: .6;
      }

      .cls-60 {
        clip-path: url(#clippath-2);
      }

      .cls-9 {
        filter: url(#drop-shadow-10);
      }

      .cls-10 {
        filter: url(#drop-shadow-4);
      }

      .cls-11 {
        filter: url(#drop-shadow-11);
      }

      .cls-12 {
        filter: url(#drop-shadow-3);
      }

      .cls-13 {
        filter: url(#drop-shadow-1);
      }

      .cls-61 {
        clip-path: url(#clippath);
      }

      .cls-39 {
        fill: #353535;
        stroke-width: 3.37px;
      }

      .cls-38 {
        stroke-dasharray: 4.14 4.14;
      }

      .cls-14 {
        filter: url(#drop-shadow-8);
      }
    </style>
    <clipPath id="clippath">
      <rect class="cls-22" x="686.56" y="819.6" width="264.51" height="220.06"/>
    </clipPath>
    <clipPath id="clippath-1">
      <rect class="cls-22" x="346.86" y="810.4" width="265.73" height="229.27"/>
    </clipPath>
    <clipPath id="clippath-2">
      <rect class="cls-22" x="1036.3" y="803.88" width="253.91" height="235.78"/>
    </clipPath>
    <clipPath id="clippath-3">
      <path class="cls-22" d="M329.34,368.84c-.34-.42-.7,13.63-1.08,13.63-2.18,0-4.02,7.66-4.02,17.1s1.84,17.1,4.02,17.1c.27,0,.54,12.64.8,12.41l447.77,60v-60.25l-447.49-60Z"/>
    </clipPath>
    <filter id="drop-shadow-1" x="513.23" y="386.23" width="30" height="30" filterUnits="userSpaceOnUse">
      <feOffset dx="2" dy="2"/>
      <feGaussianBlur result="blur" stdDeviation="2"/>
      <feFlood flood-color="#000" flood-opacity=".2"/>
      <feComposite in2="blur" operator="in"/>
      <feComposite in="SourceGraphic"/>
    </filter>
    <filter id="drop-shadow-2" x="482.23" y="374.23" width="30" height="30" filterUnits="userSpaceOnUse">
      <feOffset dx="2" dy="2"/>
      <feGaussianBlur result="blur-2" stdDeviation="2"/>
      <feFlood flood-color="#000" flood-opacity=".2"/>
      <feComposite in2="blur-2" operator="in"/>
      <feComposite in="SourceGraphic"/>
    </filter>
    <filter id="drop-shadow-3" x="552.23" y="440.23" width="30" height="30" filterUnits="userSpaceOnUse">
      <feOffset dx="2" dy="2"/>
      <feGaussianBlur result="blur-3" stdDeviation="2"/>
      <feFlood flood-color="#000" flood-opacity=".2"/>
      <feComposite in2="blur-3" operator="in"/>
      <feComposite in="SourceGraphic"/>
    </filter>
    <filter id="drop-shadow-4" x="519.23" y="439.23" width="30" height="30" filterUnits="userSpaceOnUse">
      <feOffset dx="2" dy="2"/>
      <feGaussianBlur result="blur-4" stdDeviation="2"/>
      <feFlood flood-color="#000" flood-opacity=".2"/>
      <feComposite in2="blur-4" operator="in"/>
      <feComposite in="SourceGraphic"/>
    </filter>
    <filter id="drop-shadow-5" x="523.23" y="409.23" width="30" height="30" filterUnits="userSpaceOnUse">
      <feOffset dx="2" dy="2"/>
      <feGaussianBlur result="blur-5" stdDeviation="2"/>
      <feFlood flood-color="#000" flood-opacity=".2"/>
      <feComposite in2="blur-5" operator="in"/>
      <feComposite in="SourceGraphic"/>
    </filter>
    <filter id="drop-shadow-6" x="577.23" y="422.23" width="30" height="30" filterUnits="userSpaceOnUse">
      <feOffset dx="2" dy="2"/>
      <feGaussianBlur result="blur-6" stdDeviation="2"/>
      <feFlood flood-color="#000" flood-opacity=".2"/>
      <feComposite in2="blur-6" operator="in"/>
      <feComposite in="SourceGraphic"/>
    </filter>
    <filter id="drop-shadow-7" x="492.23" y="414.23" width="30" height="30" filterUnits="userSpaceOnUse">
      <feOffset dx="2" dy="2"/>
      <feGaussianBlur result="blur-7" stdDeviation="2"/>
      <feFlood flood-color="#000" flood-opacity=".2"/>
      <feComposite in2="blur-7" operator="in"/>
      <feComposite in="SourceGraphic"/>
    </filter>
    <filter id="drop-shadow-8" x="483.23" y="426.23" width="30" height="30" filterUnits="userSpaceOnUse">
      <feOffset dx="2" dy="2"/>
      <feGaussianBlur result="blur-8" stdDeviation="2"/>
      <feFlood flood-color="#000" flood-opacity=".2"/>
      <feComposite in2="blur-8" operator="in"/>
      <feComposite in="SourceGraphic"/>
    </filter>
    <filter id="drop-shadow-9" x="549.23" y="395.23" width="30" height="30" filterUnits="userSpaceOnUse">
      <feOffset dx="2" dy="2"/>
      <feGaussianBlur result="blur-9" stdDeviation="2"/>
      <feFlood flood-color="#000" flood-opacity=".2"/>
      <feComposite in2="blur-9" operator="in"/>
      <feComposite in="SourceGraphic"/>
    </filter>
    <filter id="drop-shadow-10" x="482.23" y="403.23" width="30" height="30" filterUnits="userSpaceOnUse">
      <feOffset dx="2" dy="2"/>
      <feGaussianBlur result="blur-10" stdDeviation="2"/>
      <feFlood flood-color="#000" flood-opacity=".2"/>
      <feComposite in2="blur-10" operator="in"/>
      <feComposite in="SourceGraphic"/>
    </filter>
    <filter id="drop-shadow-11" x="560.23" y="385.23" width="30" height="30" filterUnits="userSpaceOnUse">
      <feOffset dx="2" dy="2"/>
      <feGaussianBlur result="blur-11" stdDeviation="2"/>
      <feFlood flood-color="#000" flood-opacity=".2"/>
      <feComposite in2="blur-11" operator="in"/>
      <feComposite in="SourceGraphic"/>
    </filter>
    <filter id="drop-shadow-12" x="527.23" y="356.23" width="30" height="30" filterUnits="userSpaceOnUse">
      <feOffset dx="2" dy="2"/>
      <feGaussianBlur result="blur-12" stdDeviation="2"/>
      <feFlood flood-color="#000" flood-opacity=".2"/>
      <feComposite in2="blur-12" operator="in"/>
      <feComposite in="SourceGraphic"/>
    </filter>
    <filter id="drop-shadow-13" x="577.23" y="366.23" width="30" height="30" filterUnits="userSpaceOnUse">
      <feOffset dx="2" dy="2"/>
      <feGaussianBlur result="blur-13" stdDeviation="2"/>
      <feFlood flood-color="#000" flood-opacity=".2"/>
      <feComposite in2="blur-13" operator="in"/>
      <feComposite in="SourceGraphic"/>
    </filter>
    <filter id="drop-shadow-14" x="563.23" y="421.23" width="30" height="30" filterUnits="userSpaceOnUse">
      <feOffset dx="2" dy="2"/>
      <feGaussianBlur result="blur-14" stdDeviation="2"/>
      <feFlood flood-color="#000" flood-opacity=".2"/>
      <feComposite in2="blur-14" operator="in"/>
      <feComposite in="SourceGraphic"/>
    </filter>
    <linearGradient id="linear-gradient" x1="607.99" y1="399.69" x2="745.58" y2="399.69" gradientUnits="userSpaceOnUse">
      <stop offset="0" stop-color="#a40000"/>
      <stop offset=".25" stop-color="#a50404" stop-opacity=".98"/>
      <stop offset=".41" stop-color="#a11" stop-opacity=".93"/>
      <stop offset=".54" stop-color="#b22828" stop-opacity=".84"/>
      <stop offset=".66" stop-color="#bd4848" stop-opacity=".72"/>
      <stop offset=".76" stop-color="#cc7171" stop-opacity=".55"/>
      <stop offset=".86" stop-color="#dea4a4" stop-opacity=".35"/>
      <stop offset=".96" stop-color="#f4e0e0" stop-opacity=".12"/>
      <stop offset="1" stop-color="#fff" stop-opacity="0"/>
    </linearGradient>
    <clipPath id="clippath-4">
      <polygon class="cls-22" points="627.55 322.72 679.54 272.47 737.98 373.95 741.14 446.25 693.93 396.79 642.1 396.42 627.55 322.72"/>
    </clipPath>
  </defs>
  <g class="cls-52">
    <g id="Figure_1.b" data-name="Figure 1.b">
      <g>
        <g>
          <rect class="cls-41" x="893.22" y="262.07" width="172.3" height="129.22"/>
          <polygon class="cls-41" points="1093.35 379.82 1065.52 391.29 1065.52 262.07 1093.35 252.38 1093.35 379.82"/>
          <polygon class="cls-41" points="1065.52 262.07 893.22 262.07 940.62 252.38 1093.35 252.38 1065.52 262.07"/>
        </g>
        <g>
          <g>
            <circle cx="935.21" cy="278.58" r="5.14"/>
            <circle cx="958.58" cy="278.58" r="5.14"/>
            <circle cx="981.94" cy="278.58" r="5.14"/>
            <circle cx="1005.31" cy="278.58" r="5.14"/>
          </g>
          <g>
            <circle cx="935.21" cy="375.6" r="5.14"/>
            <circle cx="958.58" cy="375.6" r="5.14"/>
            <circle cx="981.94" cy="375.6" r="5.14"/>
            <circle cx="1005.31" cy="375.6" r="5.14"/>
          </g>
          <g>
            <circle cx="1038.01" cy="287.24" r="5.14"/>
            <circle cx="1038.01" cy="307.32" r="5.14"/>
            <circle cx="1038.01" cy="327.41" r="5.14"/>
            <circle cx="1038.01" cy="347.49" r="5.14"/>
            <circle cx="1038.01" cy="367.57" r="5.14"/>
          </g>
        </g>
      </g>
      <rect class="cls-48" x="19.56" y="661.77" width="1317.89" height="477.28" rx="6" ry="6"/>
      <rect class="cls-47" x="19.56" y="663.79" width="257.22" height="75.78"/>
      <g>
        <g>
          <path class="cls-44" d="M666.41,943.53v10.73l5.23,2.25v3.13l-21.19-9.44v-2.59l21.19-9.44v3.1l-5.23,2.25ZM663.94,944.58l-10.04,4.3,10.04,4.33v-8.63Z"/>
          <path class="cls-44" d="M670.56,932.12c-.88,1.51-2.14,2.68-3.77,3.49s-3.55,1.22-5.76,1.22-4.12-.41-5.76-1.22c-1.63-.81-2.89-1.97-3.76-3.49-.87-1.51-1.31-3.29-1.31-5.34,0-1.44.23-2.79.68-4.03.45-1.24,1.1-2.29,1.94-3.16l2.29,1.08c-.82.98-1.41,1.96-1.77,2.93-.36.97-.54,2.02-.54,3.14,0,2.2.71,3.9,2.13,5.09s3.46,1.79,6.1,1.79,4.68-.6,6.12-1.79c1.43-1.19,2.15-2.89,2.15-5.09,0-1.12-.18-2.17-.54-3.14s-.95-1.95-1.77-2.93l2.28-1.08c.84.86,1.49,1.91,1.94,3.16.45,1.24.68,2.58.68,4.03,0,2.04-.44,3.82-1.32,5.34Z"/>
          <path class="cls-44" d="M650.45,915.75v-13.47h2.52v10.4h6.64v-9.8h2.53v9.8h9.5v3.07h-21.19Z"/>
        </g>
        <g>
          <path class="cls-44" d="M762.27,1058.44h2.93v20.48h-2.93v-20.48Z"/>
          <path class="cls-44" d="M771.79,1078.22c-1.06-.6-1.87-1.46-2.44-2.57s-.86-2.41-.86-3.88.29-2.79.86-3.91,1.38-1.97,2.44-2.57c1.06-.6,2.28-.9,3.67-.9s2.62.3,3.67.9c1.06.6,1.87,1.46,2.44,2.57.57,1.11.86,2.42.86,3.91s-.29,2.76-.86,3.88c-.57,1.11-1.38,1.97-2.44,2.57-1.06.6-2.28.9-3.67.9s-2.62-.3-3.67-.9ZM778.44,1075.52c.69-.85,1.03-2.1,1.03-3.75s-.35-2.87-1.05-3.73c-.7-.86-1.68-1.29-2.96-1.29s-2.27.43-2.96,1.29c-.7.86-1.05,2.11-1.05,3.73s.34,2.89,1.03,3.75,1.68,1.28,2.98,1.28,2.29-.43,2.98-1.28Z"/>
          <path class="cls-44" d="M798.88,1064.74v13.04c0,2.17-.58,3.81-1.73,4.91-1.15,1.1-2.85,1.66-5.1,1.66-1.22,0-2.38-.16-3.47-.48-1.09-.32-2.07-.78-2.92-1.38l.9-2.12c.93.6,1.82,1.03,2.69,1.29.86.26,1.79.39,2.77.39,2.65,0,3.98-1.35,3.98-4.04v-2.24c-.41.85-1.03,1.52-1.86,1.99s-1.8.71-2.9.71c-1.24,0-2.34-.29-3.31-.87-.97-.58-1.72-1.4-2.25-2.47-.53-1.06-.8-2.29-.8-3.69s.27-2.62.81-3.69c.54-1.07,1.29-1.89,2.25-2.48.96-.59,2.06-.89,3.3-.89,1.08,0,2.04.23,2.86.7.82.46,1.45,1.12,1.87,1.98v-2.32h2.91ZM794.9,1074.91c.72-.83,1.07-1.98,1.07-3.46s-.35-2.6-1.06-3.44c-.71-.84-1.7-1.26-2.98-1.26s-2.28.42-3.01,1.25c-.73.83-1.09,1.99-1.09,3.46s.37,2.62,1.1,3.46c.74.83,1.73,1.25,2.99,1.25s2.25-.42,2.96-1.25Z"/>
          <path class="cls-44" d="M816.82,1065.81l-.49,4.88c-.08.85-.12,1.7-.12,2.55,0,1.62.19,2.61.57,2.95.38.35.81.52,1.3.52,1.09,0,1.74-.69,1.94-2.06h.63c-.37,3.15-1.63,4.73-3.76,4.73s-3.35-1.28-3.35-3.85c0-1.29.12-2.9.37-4.83l.63-4.9h-1.68c-.93,0-1.65.16-2.17.47s-1,.94-1.44,1.88h-.61c.36-1.25.79-2.24,1.29-2.97.5-.73.98-1.22,1.43-1.48.45-.25,1.13-.38,2.03-.38h8.37v2.49h-4.94Z"/>
          <path class="cls-44" d="M833.74,1077.86c-.56-2.12-.84-4.31-.84-6.58s.28-4.45.84-6.57c.56-2.11,1.5-4.35,2.82-6.71l2,.81c-.97,2.3-1.65,4.45-2.05,6.43-.4,1.99-.59,3.99-.59,6.03s.2,4.04.59,6.03c.4,1.99,1.08,4.13,2.05,6.43l-2,.81c-1.32-2.34-2.26-4.58-2.82-6.7Z"/>
          <path class="cls-44" d="M840.71,1077.32l.9-2.12c1.45,1.12,3.15,1.68,5.08,1.68.95,0,1.67-.16,2.18-.48.5-.32.75-.77.75-1.35,0-.5-.17-.9-.51-1.19-.34-.29-.92-.53-1.76-.73l-2.35-.52c-1.26-.29-2.21-.76-2.85-1.42-.64-.66-.96-1.49-.96-2.5,0-1.28.52-2.31,1.55-3.11s2.4-1.19,4.08-1.19c1.01,0,1.97.16,2.88.48s1.69.77,2.35,1.35l-.9,2.06c-1.39-1.1-2.84-1.66-4.33-1.66-.89,0-1.59.17-2.11.52-.51.35-.77.82-.77,1.42,0,.48.16.88.48,1.18.32.3.83.53,1.53.68l2.41.55c1.38.31,2.38.79,3.02,1.44.64.65.96,1.5.96,2.54,0,1.28-.52,2.29-1.55,3.04-1.04.75-2.44,1.12-4.2,1.12-2.46,0-4.42-.6-5.9-1.8Z"/>
          <path class="cls-44" d="M854.6,1083.74c.97-2.3,1.65-4.45,2.05-6.43.4-1.98.6-3.99.6-6.03s-.2-4.04-.6-6.03c-.4-1.99-1.08-4.13-2.05-6.43l2-.81c1.3,2.36,2.23,4.6,2.79,6.71.56,2.11.84,4.3.84,6.57s-.28,4.46-.84,6.58c-.56,2.12-1.49,4.35-2.79,6.7l-2-.81Z"/>
        </g>
        <g class="cls-61">
          <path class="cls-33" d="M682.71,849.12s76.28.32,87.16.32c22.09,0,40.45,13.78,49.77,26.21,16.81,22.41,20.37,54.49,32.3,102.51,13.51,54.39,43.38,49.99,68.94,49.85,24.22-.13,20.07-.12,20.07-.12"/>
          <path class="cls-27" d="M665.91,852.24s32.93-9.89,54.2,5.27c25.85,18.42,33.13,52.08,40.71,95.92,8.22,47.52,18.13,74.83,46.06,74.44,17.16-.24,134.28.36,134.28.36"/>
        </g>
        <g>
          <polyline class="cls-34" points="936.9 1039.67 686.56 1039.67 686.56 800.97"/>
          <polyline class="cls-28" points="693.31 809.25 686.56 800.97 679.82 809.25"/>
          <polyline class="cls-28" points="928.62 1046.41 936.9 1039.67 928.62 1032.92"/>
        </g>
      </g>
      <g>
        <g>
          <path class="cls-44" d="M426.4,1060.94h-6.91v-2.5h16.88v2.5h-6.94v17.98h-3.02v-17.98Z"/>
          <path class="cls-44" d="M441.92,1058.41v3.05h-3.37v-3.05h3.37ZM438.75,1064.74h2.93v14.18h-2.93v-14.18Z"/>
          <path class="cls-44" d="M466.81,1070.11v8.8h-2.93v-8.69c0-1.2-.21-2.08-.62-2.63s-1.09-.83-2.02-.83c-1.07,0-1.91.37-2.53,1.1-.62.74-.93,1.74-.93,3.02v8.02h-2.93v-8.69c0-1.2-.21-2.08-.64-2.63s-1.09-.83-2-.83c-1.08,0-1.94.37-2.56,1.1s-.93,1.74-.93,3.02v8.02h-2.93v-14.18h2.88v2.15c.45-.79,1.05-1.41,1.8-1.84.76-.44,1.62-.65,2.59-.65,2.19,0,3.61.91,4.27,2.73.45-.85,1.08-1.52,1.92-2,.83-.48,1.77-.73,2.82-.73,3.18,0,4.76,1.91,4.76,5.72Z"/>
          <path class="cls-44" d="M482.96,1072.32h-10.02c.21,3,1.7,4.5,4.47,4.5,1.63,0,3.1-.53,4.42-1.6l.9,2.06c-.66.56-1.47,1.01-2.44,1.34s-1.96.49-2.96.49c-2.27,0-4.05-.65-5.36-1.95-1.31-1.3-1.96-3.09-1.96-5.37,0-1.45.29-2.74.86-3.86s1.38-1.99,2.41-2.61c1.04-.62,2.21-.93,3.53-.93,1.92,0,3.42.62,4.52,1.86s1.64,2.95,1.64,5.14v.93ZM474.17,1067.6c-.67.71-1.07,1.72-1.21,3.04h7.47c-.06-1.32-.39-2.33-1-3.04-.61-.71-1.47-1.06-2.57-1.06s-2.02.35-2.69,1.06Z"/>
          <path class="cls-44" d="M495.63,1077.86c-.56-2.12-.84-4.31-.84-6.58s.28-4.45.84-6.57c.56-2.11,1.5-4.35,2.82-6.71l2,.81c-.97,2.3-1.65,4.45-2.05,6.43-.4,1.99-.59,3.99-.59,6.03s.2,4.04.59,6.03c.4,1.99,1.08,4.13,2.05,6.43l-2,.81c-1.32-2.34-2.26-4.58-2.82-6.7Z"/>
          <path class="cls-44" d="M502.6,1077.32l.9-2.12c1.45,1.12,3.15,1.68,5.08,1.68.95,0,1.67-.16,2.18-.48.5-.32.75-.77.75-1.35,0-.5-.17-.9-.51-1.19-.34-.29-.92-.53-1.76-.73l-2.35-.52c-1.26-.29-2.21-.76-2.85-1.42-.64-.66-.96-1.49-.96-2.5,0-1.28.52-2.31,1.55-3.11s2.4-1.19,4.08-1.19c1.01,0,1.97.16,2.88.48s1.69.77,2.35,1.35l-.9,2.06c-1.39-1.1-2.84-1.66-4.33-1.66-.89,0-1.59.17-2.11.52-.51.35-.77.82-.77,1.42,0,.48.16.88.48,1.18.32.3.83.53,1.53.68l2.41.55c1.38.31,2.38.79,3.02,1.44.64.65.96,1.5.96,2.54,0,1.28-.52,2.29-1.55,3.04-1.04.75-2.44,1.12-4.2,1.12-2.46,0-4.42-.6-5.9-1.8Z"/>
          <path class="cls-44" d="M516.48,1083.74c.97-2.3,1.65-4.45,2.05-6.43.4-1.98.6-3.99.6-6.03s-.2-4.04-.6-6.03c-.4-1.99-1.08-4.13-2.05-6.43l2-.81c1.3,2.36,2.23,4.6,2.79,6.71.56,2.11.84,4.3.84,6.57s-.28,4.46-.84,6.58c-.56,2.12-1.49,4.35-2.79,6.7l-2-.81Z"/>
        </g>
        <g>
          <path class="cls-44" d="M305.6,989.18v-3.1h21.19v3.1h-21.19Z"/>
          <path class="cls-44" d="M317.69,968.35h9.11v3.04h-8.96c-1.24,0-2.15.25-2.74.74s-.87,1.26-.87,2.3c0,1.22.38,2.2,1.14,2.95.76.74,1.78,1.11,3.07,1.11h8.36v3.04h-14.67v-2.98h2.34c-.88-.48-1.55-1.15-2.01-2.01-.46-.86-.69-1.83-.69-2.92,0-3.51,1.97-5.26,5.92-5.26Z"/>
          <path class="cls-44" d="M324.57,955.9l2.31.15c.08.5.12,1.02.12,1.56,0,1.9-.47,3.32-1.4,4.25-.93.93-2.28,1.4-4.04,1.4h-7.09v2.86h-2.34v-2.86h-4.42v-3.04h4.42v-4.03h2.34v4.03h6.97c2.14,0,3.22-.99,3.22-2.98,0-.46-.03-.91-.09-1.35Z"/>
          <path class="cls-44" d="M319.97,941.02v10.37c3.11-.22,4.66-1.76,4.66-4.63,0-1.68-.55-3.21-1.65-4.57l2.13-.93c.58.68,1.04,1.52,1.38,2.52.34,1,.51,2.02.51,3.07,0,2.34-.67,4.19-2.01,5.55-1.34,1.35-3.2,2.03-5.56,2.03-1.5,0-2.83-.29-4-.89-1.16-.59-2.06-1.42-2.71-2.5-.64-1.07-.96-2.29-.96-3.65,0-1.98.64-3.54,1.92-4.67,1.28-1.13,3.06-1.7,5.32-1.7h.96ZM315.08,950.12c.73.69,1.78,1.11,3.14,1.25v-7.73c-1.36.06-2.41.41-3.14,1.04-.73.63-1.1,1.52-1.1,2.66s.37,2.09,1.1,2.78Z"/>
          <path class="cls-44" d="M317.69,924.52h9.11v3.04h-8.96c-1.24,0-2.15.25-2.74.74s-.87,1.26-.87,2.3c0,1.22.38,2.2,1.14,2.95.76.74,1.78,1.11,3.07,1.11h8.36v3.04h-14.67v-2.98h2.34c-.88-.48-1.55-1.15-2.01-2.01-.46-.86-.69-1.83-.69-2.92,0-3.51,1.97-5.26,5.92-5.26Z"/>
          <path class="cls-44" d="M325.14,921.3l-2.19-.93c1.16-1.5,1.74-3.26,1.74-5.26,0-.98-.17-1.73-.5-2.25-.33-.52-.8-.78-1.4-.78-.52,0-.93.18-1.23.53s-.55.96-.75,1.82l-.54,2.44c-.3,1.3-.79,2.28-1.47,2.95-.68.66-1.54.99-2.58.99-1.32,0-2.39-.54-3.22-1.61-.82-1.07-1.23-2.48-1.23-4.22,0-1.04.17-2.03.5-2.98.33-.94.8-1.75,1.4-2.43l2.13.93c-1.14,1.44-1.71,2.94-1.71,4.48,0,.92.18,1.65.54,2.18.36.53.85.8,1.47.8.5,0,.91-.17,1.22-.5.31-.33.55-.86.71-1.58l.57-2.5c.32-1.42.82-2.46,1.49-3.13.67-.66,1.55-.99,2.63-.99,1.32,0,2.37.54,3.14,1.61.77,1.07,1.16,2.52,1.16,4.34,0,2.54-.62,4.58-1.86,6.1Z"/>
          <path class="cls-44" d="M305.57,902.61h3.16v3.49h-3.16v-3.49ZM312.12,905.88v-3.04h14.67v3.04h-14.67Z"/>
          <path class="cls-44" d="M324.57,890.31l2.31.15c.08.5.12,1.02.12,1.56,0,1.9-.47,3.32-1.4,4.25-.93.93-2.28,1.4-4.04,1.4h-7.09v2.86h-2.34v-2.86h-4.42v-3.04h4.42v-4.03h2.34v4.03h6.97c2.14,0,3.22-.99,3.22-2.98,0-.46-.03-.91-.09-1.35Z"/>
          <path class="cls-44" d="M312.15,874.35l20.05,8.75v3.07l-5.77-2.55-14.28,6.16v-3.19l11.21-4.57-11.21-4.63v-3.04Z"/>
        </g>
        <g class="cls-50">
          <polyline class="cls-29" points="346.86 952.46 393 832.57 419.54 881.11 437.55 937.17 441.87 987.03 456.21 1014.45 469.94 970.8 480.98 886.7 487.59 844.57 502.42 819.6 527.36 885.09 552.48 1006.53 560.77 985.09 570.66 998.62 589.73 954.45"/>
          <polyline class="cls-27" points="346.86 970.84 362 936.74 377.1 971.31 390.59 936.4 405.57 970.45 417.98 911.29 431.45 973.17 449.49 894.53 467.11 992.04 475.02 932.66 481.15 956.83 489.32 937.09 496.13 954.11 506.68 934.02 516.21 959.64 531.71 906.7 546.39 975.76 556.4 916.15 563.19 951.38 571.32 931.52 577.48 948.66 583.96 934.7 589.73 945.65 594.64 931.11 598.98 943.66"/>
        </g>
        <g>
          <polyline class="cls-34" points="597.2 1039.67 346.86 1039.67 346.86 800.97"/>
          <polyline class="cls-28" points="353.61 809.25 346.86 800.97 340.11 809.25"/>
          <polyline class="cls-28" points="589.73 1046.41 598 1039.67 589.73 1032.92"/>
        </g>
      </g>
      <g>
        <path class="cls-44" d="M88.91,708.41h-13.61l-2.82,6.54h-5.16l12.65-27.97h4.17l12.65,27.97h-5.08l-2.82-6.54ZM87.2,704.44l-5.12-11.9-5.12,11.9h10.23Z"/>
        <path class="cls-44" d="M115.4,697.06c1.14,1.32,1.71,3.32,1.71,5.99v11.9h-4.96v-11.62c0-1.51-.28-2.6-.85-3.29-.57-.69-1.46-1.03-2.68-1.03-1.43,0-2.57.45-3.43,1.35s-1.29,2.1-1.29,3.61v10.99h-4.96v-19.4h4.84v2.9c.66-1.08,1.55-1.92,2.66-2.5,1.11-.58,2.37-.87,3.77-.87,2.33,0,4.06.66,5.2,1.98Z"/>
        <path class="cls-44" d="M136.15,697.06c1.32,1.32,1.98,3.36,1.98,6.11v11.78h-4.72v-2.98c-.45,1.03-1.16,1.84-2.12,2.42-.97.58-2.08.87-3.35.87s-2.47-.26-3.53-.79c-1.06-.53-1.89-1.26-2.5-2.18-.61-.92-.91-1.96-.91-3.09,0-1.43.36-2.55,1.09-3.37.73-.82,1.91-1.41,3.55-1.79,1.64-.37,3.9-.55,6.78-.55h.99v-.91c0-1.32-.28-2.27-.85-2.86-.57-.58-1.51-.87-2.84-.87-1.03,0-2.11.18-3.23.54-1.12.36-2.23.85-3.31,1.49l-1.39-3.41c1.08-.69,2.39-1.26,3.93-1.71,1.53-.45,2.99-.67,4.36-.67,2.72,0,4.75.66,6.07,1.98ZM132.16,710.37c.83-.89,1.25-2.03,1.25-3.43v-.83h-.71c-1.77,0-3.15.08-4.13.24-.98.16-1.68.44-2.1.83-.42.4-.63.94-.63,1.63,0,.85.29,1.54.87,2.08.58.54,1.32.81,2.22.81,1.32,0,2.4-.44,3.23-1.33Z"/>
        <path class="cls-44" d="M142.77,686.98h4.96v27.97h-4.96v-27.97Z"/>
        <path class="cls-44" d="M170.94,695.59l-11.66,26.5h-5l3.53-7.89-8.09-18.6h5.24l5.47,13.69,5.63-13.69h4.88Z"/>
        <path class="cls-44" d="M175.04,714.63c-1.44-.42-2.67-1.03-3.67-1.83l1.39-3.45c2.06,1.51,4.43,2.26,7.1,2.26,1.14,0,2-.18,2.6-.56.59-.37.89-.9.89-1.59,0-.58-.21-1.03-.62-1.35s-1.14-.61-2.2-.87l-3.17-.71c-1.8-.4-3.13-1.04-4.01-1.94-.87-.9-1.31-2.06-1.31-3.49,0-1.19.34-2.24,1.01-3.15.67-.91,1.61-1.62,2.82-2.12,1.2-.5,2.6-.75,4.18-.75,1.38,0,2.7.21,3.99.63,1.28.42,2.41,1.02,3.39,1.79l-1.39,3.37c-2.01-1.45-4.02-2.18-6.03-2.18-1.08,0-1.93.2-2.54.59s-.91.95-.91,1.67c0,.53.19.97.58,1.31.38.34,1,.61,1.84.79l3.29.75c1.93.42,3.35,1.09,4.25,2,.9.91,1.35,2.11,1.35,3.59,0,1.8-.73,3.23-2.18,4.28-1.46,1.06-3.43,1.59-5.91,1.59-1.72,0-3.3-.21-4.74-.63Z"/>
        <path class="cls-44" d="M196.68,686.55v4.88h-5.47v-4.88h5.47ZM191.49,695.55h4.96v19.4h-4.96v-19.4Z"/>
        <path class="cls-44" d="M203.57,714.63c-1.44-.42-2.67-1.03-3.67-1.83l1.39-3.45c2.06,1.51,4.43,2.26,7.1,2.26,1.14,0,2-.18,2.6-.56.59-.37.89-.9.89-1.59,0-.58-.21-1.03-.62-1.35s-1.14-.61-2.2-.87l-3.17-.71c-1.8-.4-3.13-1.04-4.01-1.94-.87-.9-1.31-2.06-1.31-3.49,0-1.19.34-2.24,1.01-3.15.67-.91,1.61-1.62,2.82-2.12,1.2-.5,2.6-.75,4.18-.75,1.38,0,2.7.21,3.99.63,1.28.42,2.41,1.02,3.39,1.79l-1.39,3.37c-2.01-1.45-4.02-2.18-6.03-2.18-1.08,0-1.93.2-2.54.59s-.91.95-.91,1.67c0,.53.19.97.58,1.31.38.34,1,.61,1.84.79l3.29.75c1.93.42,3.35,1.09,4.25,2,.9.91,1.35,2.11,1.35,3.59,0,1.8-.73,3.23-2.18,4.28-1.46,1.06-3.43,1.59-5.91,1.59-1.72,0-3.3-.21-4.74-.63Z"/>
      </g>
      <g>
        <g>
          <path class="cls-44" d="M994.64,984.56v-3.1h21.19v3.1h-21.19Z"/>
          <path class="cls-44" d="M1006.72,963.73h9.11v3.04h-8.96c-1.24,0-2.15.25-2.74.74s-.87,1.26-.87,2.3c0,1.22.38,2.2,1.14,2.95.76.74,1.78,1.11,3.07,1.11h8.36v3.04h-14.67v-2.98h2.34c-.88-.48-1.55-1.15-2.01-2.01-.46-.86-.69-1.83-.69-2.92,0-3.51,1.97-5.26,5.92-5.26Z"/>
          <path class="cls-44" d="M1013.61,951.29l2.31.15c.08.5.12,1.02.12,1.56,0,1.9-.47,3.32-1.4,4.25-.93.93-2.28,1.4-4.04,1.4h-7.09v2.86h-2.34v-2.86h-4.42v-3.04h4.42v-4.03h2.34v4.03h6.97c2.14,0,3.22-.99,3.22-2.98,0-.46-.03-.91-.09-1.35Z"/>
          <path class="cls-44" d="M1009.01,936.41v10.37c3.11-.22,4.66-1.76,4.66-4.63,0-1.68-.55-3.21-1.65-4.57l2.13-.93c.58.68,1.04,1.52,1.38,2.52.34,1,.51,2.02.51,3.07,0,2.34-.67,4.19-2.01,5.55-1.34,1.35-3.2,2.03-5.56,2.03-1.5,0-2.83-.29-4-.89-1.16-.59-2.06-1.42-2.71-2.5-.64-1.07-.96-2.29-.96-3.65,0-1.98.64-3.54,1.92-4.67,1.28-1.13,3.06-1.7,5.32-1.7h.96ZM1004.12,945.5c.73.69,1.78,1.11,3.14,1.25v-7.73c-1.36.06-2.41.41-3.14,1.04-.73.63-1.1,1.52-1.1,2.66s.37,2.09,1.1,2.78Z"/>
          <path class="cls-44" d="M1006.72,919.9h9.11v3.04h-8.96c-1.24,0-2.15.25-2.74.74s-.87,1.26-.87,2.3c0,1.22.38,2.2,1.14,2.95.76.74,1.78,1.11,3.07,1.11h8.36v3.04h-14.67v-2.98h2.34c-.88-.48-1.55-1.15-2.01-2.01-.46-.86-.69-1.83-.69-2.92,0-3.51,1.97-5.26,5.92-5.26Z"/>
          <path class="cls-44" d="M1014.18,916.69l-2.19-.93c1.16-1.5,1.74-3.26,1.74-5.26,0-.98-.17-1.73-.5-2.25-.33-.52-.8-.78-1.4-.78-.52,0-.93.18-1.23.53s-.55.96-.75,1.82l-.54,2.44c-.3,1.3-.79,2.28-1.47,2.95-.68.66-1.54.99-2.58.99-1.32,0-2.39-.54-3.22-1.61-.82-1.07-1.23-2.48-1.23-4.22,0-1.04.17-2.03.5-2.98.33-.94.8-1.75,1.4-2.43l2.13.93c-1.14,1.44-1.71,2.94-1.71,4.48,0,.92.18,1.65.54,2.18.36.53.85.8,1.47.8.5,0,.91-.17,1.22-.5.31-.33.55-.86.71-1.58l.57-2.5c.32-1.42.82-2.46,1.49-3.13.67-.66,1.55-.99,2.63-.99,1.32,0,2.37.54,3.14,1.61.77,1.07,1.16,2.52,1.16,4.34,0,2.54-.62,4.58-1.86,6.1Z"/>
          <path class="cls-44" d="M994.61,897.99h3.16v3.49h-3.16v-3.49ZM1001.16,901.27v-3.04h14.67v3.04h-14.67Z"/>
          <path class="cls-44" d="M1013.61,885.7l2.31.15c.08.5.12,1.02.12,1.56,0,1.9-.47,3.32-1.4,4.25-.93.93-2.28,1.4-4.04,1.4h-7.09v2.86h-2.34v-2.86h-4.42v-3.04h4.42v-4.03h2.34v4.03h6.97c2.14,0,3.22-.99,3.22-2.98,0-.46-.03-.91-.09-1.35Z"/>
          <path class="cls-44" d="M1001.19,869.74l20.05,8.75v3.07l-5.77-2.55-14.28,6.16v-3.19l11.21-4.57-11.21-4.63v-3.04Z"/>
        </g>
        <g>
          <path class="cls-44" d="M1118.88,1084.14c-1.33-.43-2.46-1.06-3.41-1.89l1.07-2.21c1.01.81,2.05,1.4,3.12,1.76,1.07.36,2.28.54,3.62.54,1.53,0,2.71-.29,3.54-.86s1.25-1.38,1.25-2.43c0-.89-.39-1.55-1.16-1.99-.77-.44-2.01-.85-3.72-1.23-1.63-.35-2.96-.75-4.01-1.19s-1.86-1.05-2.46-1.82c-.59-.77-.89-1.74-.89-2.92s.31-2.26.94-3.17c.63-.91,1.53-1.62,2.69-2.13,1.16-.51,2.51-.77,4.04-.77,1.43,0,2.78.22,4.05.65,1.27.44,2.31,1.06,3.12,1.87l-1.05,2.21c-.95-.77-1.92-1.35-2.92-1.73-1-.38-2.06-.57-3.18-.57-1.47,0-2.63.3-3.47.92-.84.61-1.26,1.46-1.26,2.54,0,.93.37,1.63,1.1,2.11.74.47,1.92.91,3.54,1.29,1.7.39,3.08.79,4.14,1.21,1.06.42,1.9.99,2.53,1.71.63.73.94,1.67.94,2.83s-.32,2.22-.94,3.11c-.63.89-1.53,1.58-2.7,2.06-1.17.48-2.56.73-4.17.73s-3.04-.21-4.37-.64Z"/>
          <path class="cls-44" d="M1137.58,1064.04v3.05h-3.37v-3.05h3.37ZM1134.41,1070.37h2.93v14.18h-2.93v-14.18Z"/>
          <path class="cls-44" d="M1152.94,1082.28v2.27h-12.14v-2.03l8.31-9.88h-8.08v-2.27h11.62v2.06l-8.31,9.85h8.6Z"/>
          <path class="cls-44" d="M1167.93,1077.96h-10.02c.21,3,1.7,4.5,4.47,4.5,1.63,0,3.1-.53,4.42-1.6l.9,2.06c-.66.56-1.47,1.01-2.44,1.34s-1.96.49-2.96.49c-2.27,0-4.05-.65-5.36-1.95-1.31-1.3-1.96-3.09-1.96-5.37,0-1.45.29-2.74.86-3.86s1.38-1.99,2.41-2.61c1.04-.62,2.21-.93,3.53-.93,1.92,0,3.42.62,4.52,1.86s1.64,2.95,1.64,5.14v.93ZM1159.15,1073.24c-.67.71-1.07,1.72-1.21,3.04h7.47c-.06-1.32-.39-2.33-1-3.04-.61-.71-1.47-1.06-2.57-1.06s-2.02.35-2.69,1.06Z"/>
          <path class="cls-44" d="M1180.6,1083.49c-.56-2.12-.84-4.31-.84-6.58s.28-4.45.84-6.57c.56-2.11,1.5-4.35,2.82-6.71l2,.81c-.97,2.3-1.65,4.45-2.05,6.43-.4,1.99-.59,3.99-.59,6.03s.2,4.04.59,6.03c.4,1.99,1.08,4.13,2.05,6.43l-2,.81c-1.32-2.34-2.26-4.58-2.82-6.7Z"/>
          <path class="cls-44" d="M1201.19,1075.75v8.8h-2.93v-8.66c0-1.2-.24-2.08-.71-2.64-.47-.56-1.22-.84-2.22-.84-1.18,0-2.13.37-2.85,1.1s-1.07,1.72-1.07,2.96v8.08h-2.93v-14.18h2.88v2.27c.46-.85,1.11-1.5,1.95-1.95.83-.45,1.77-.67,2.82-.67,3.39,0,5.08,1.91,5.08,5.72Z"/>
          <path class="cls-44" d="M1226.23,1075.75v8.8h-2.93v-8.69c0-1.2-.21-2.08-.62-2.63s-1.09-.83-2.02-.83c-1.07,0-1.91.37-2.53,1.1-.62.74-.93,1.74-.93,3.02v8.02h-2.93v-8.69c0-1.2-.21-2.08-.64-2.63s-1.09-.83-2-.83c-1.08,0-1.94.37-2.56,1.1s-.93,1.74-.93,3.02v8.02h-2.93v-14.18h2.88v2.15c.45-.79,1.05-1.41,1.8-1.84.76-.44,1.62-.65,2.59-.65,2.19,0,3.61.91,4.27,2.73.45-.85,1.08-1.52,1.92-2,.83-.48,1.77-.73,2.82-.73,3.18,0,4.76,1.91,4.76,5.72Z"/>
          <path class="cls-44" d="M1229.22,1089.37c.97-2.3,1.65-4.45,2.05-6.43.4-1.98.6-3.99.6-6.03s-.2-4.04-.6-6.03c-.4-1.99-1.08-4.13-2.05-6.43l2-.81c1.3,2.36,2.23,4.6,2.79,6.71.56,2.11.84,4.3.84,6.57s-.28,4.46-.84,6.58c-.56,2.12-1.49,4.35-2.79,6.7l-2-.81Z"/>
        </g>
        <g class="cls-60">
          <path class="cls-33" d="M1283.73,1028.38c-54.95.18-45.22,2.24-51.81-66.14s-9.9-118.11-16.92-118.09c-6.94.01-8.79,48.21-15.22,119.3-5.95,65.89-5.14,65.08-45.78,65.09-12.85,0-128.94,0-128.94,0"/>
          <path class="cls-27" d="M1283.73,1028.83s-91.07-.58-108.23-.45c-61.77.45-49.08-1.47-54.38-65.53-4.13-68.82-8.2-118.71-15.21-118.7-6.94.01-11.9,48.09-15.13,119.9-4.43,65.2,2.19,64.48-38.45,64.48-12.85,0-68.35,0-68.35,0"/>
        </g>
        <g>
          <polyline class="cls-34" points="1286.64 1039.67 1036.3 1039.67 1036.3 800.97"/>
          <polyline class="cls-28" points="1043.05 808.02 1036.3 799.74 1029.56 808.02"/>
          <polyline class="cls-28" points="1278.36 1046.41 1286.64 1039.67 1278.36 1032.92"/>
        </g>
        <g>
          <path d="M1110.87,828.07h-1.99l-2.09-3.94c-.23-.42-.51-.71-.83-.88-.32-.17-.74-.25-1.26-.25h-2.02v5.07h-1.78v-12.29h5.23c1.36,0,2.4.3,3.11.91.71.6,1.07,1.49,1.07,2.65,0,.94-.26,1.71-.79,2.32-.53.6-1.28.99-2.26,1.15.6.19,1.1.64,1.5,1.36l2.11,3.9ZM1105.92,821.55c.91,0,1.58-.18,2.01-.53s.65-.9.65-1.65-.21-1.29-.64-1.63c-.43-.34-1.1-.51-2.02-.51h-3.26v4.32h3.26Z"/>
          <path d="M1113.42,834.68c-.54-.17-1.01-.43-1.39-.77l.44-.9c.41.33.84.57,1.27.72.44.15.93.22,1.48.22.62,0,1.11-.12,1.45-.35.34-.23.51-.56.51-.99,0-.36-.16-.63-.47-.81s-.82-.35-1.52-.5c-.66-.14-1.21-.3-1.64-.49-.43-.18-.76-.43-1-.74s-.36-.71-.36-1.19.13-.92.39-1.29c.26-.37.62-.66,1.1-.87.47-.21,1.02-.31,1.65-.31.58,0,1.14.09,1.65.27s.94.43,1.27.76l-.43.9c-.39-.32-.78-.55-1.19-.71s-.84-.23-1.3-.23c-.6,0-1.07.12-1.42.37s-.52.59-.52,1.04c0,.38.15.67.45.86.3.19.78.37,1.45.53.7.16,1.26.32,1.69.49s.77.4,1.03.7c.26.3.39.68.39,1.16s-.13.91-.39,1.27-.62.64-1.1.84c-.48.2-1.05.3-1.7.3s-1.24-.09-1.78-.26Z"/>
        </g>
        <g>
          <path d="M1217.97,828.07h-1.99l-2.09-3.94c-.23-.42-.51-.71-.83-.88-.32-.17-.74-.25-1.26-.25h-2.02v5.07h-1.78v-12.29h5.23c1.36,0,2.4.3,3.11.91.71.6,1.07,1.49,1.07,2.65,0,.94-.26,1.71-.79,2.32-.53.6-1.28.99-2.26,1.15.6.19,1.1.64,1.5,1.36l2.11,3.9ZM1213.02,821.55c.91,0,1.58-.18,2.01-.53s.65-.9.65-1.65-.21-1.29-.64-1.63c-.43-.34-1.1-.51-2.02-.51h-3.26v4.32h3.26Z"/>
          <path d="M1219.43,826.71h1.05v6.29h3.47v.87h-4.52v-7.16Z"/>
        </g>
      </g>
      <g>
        <path class="cls-57" d="M488.44,550.28c.83,1.12,1.25,2.49,1.25,4.11,0,2.24-.8,4-2.41,5.27s-3.82,1.91-6.64,1.91h-11.97v-26.37h11.59c2.74,0,4.89.6,6.45,1.81,1.56,1.21,2.34,2.9,2.34,5.07,0,1.4-.37,2.61-1.1,3.63s-1.75,1.77-3.05,2.24c1.52.42,2.7,1.2,3.53,2.32ZM473.38,546.31h6.1c3.32,0,4.97-1.23,4.97-3.7,0-1.25-.41-2.17-1.23-2.77-.82-.6-2.07-.9-3.74-.9h-6.1v7.37ZM483.93,556.9c.8-.62,1.2-1.59,1.2-2.92s-.41-2.31-1.21-2.95c-.81-.65-2.08-.97-3.8-.97h-6.73v7.78h6.73c1.74,0,3.02-.31,3.81-.94Z"/>
        <path class="cls-57" d="M505.84,546.72l-2.73.26c-3.09.32-4.64,1.89-4.64,4.71v9.87h-4.67v-18.29h4.45v3.22c.95-2.19,2.9-3.39,5.87-3.59l1.42-.11.3,3.93Z"/>
        <path class="cls-57" d="M511.17,560.71c-1.41-.77-2.5-1.88-3.27-3.33-.77-1.45-1.16-3.13-1.16-5.05s.39-3.6,1.16-5.03,1.86-2.54,3.27-3.31c1.41-.77,3.05-1.16,4.92-1.16s3.51.39,4.92,1.16c1.41.77,2.49,1.88,3.25,3.31s1.14,3.11,1.14,5.03-.38,3.6-1.14,5.05c-.76,1.45-1.84,2.56-3.25,3.33-1.41.77-3.05,1.16-4.92,1.16s-3.51-.39-4.92-1.16ZM519.53,556.75c.8-1,1.2-2.47,1.2-4.41s-.4-3.38-1.2-4.39c-.8-1.01-1.94-1.51-3.44-1.51s-2.65.5-3.46,1.51c-.81,1.01-1.22,2.47-1.22,4.39s.4,3.42,1.2,4.41,1.95,1.5,3.44,1.5,2.68-.5,3.48-1.5Z"/>
        <path class="cls-57" d="M558.2,543.28l-7.18,18.29h-4.08l-4.49-11.78-4.38,11.78h-4.04l-7.22-18.29h4.79l4.67,12.71,4.67-12.71h3.37l4.67,12.79,4.64-12.79h4.56Z"/>
        <path class="cls-57" d="M576.49,544.7c1.07,1.25,1.61,3.13,1.61,5.65v11.22h-4.67v-10.96c0-1.42-.27-2.46-.8-3.1-.54-.65-1.38-.97-2.52-.97-1.35,0-2.42.42-3.23,1.27-.81.85-1.22,1.98-1.22,3.4v10.36h-4.67v-18.29h4.56v2.73c.62-1.02,1.46-1.81,2.51-2.36,1.05-.55,2.23-.82,3.55-.82,2.19,0,3.83.62,4.9,1.87Z"/>
        <path class="cls-57" d="M587.74,534.79v4.6h-5.16v-4.6h5.16ZM582.84,543.28h4.67v18.29h-4.67v-18.29Z"/>
        <path class="cls-57" d="M605.92,544.7c1.25,1.25,1.87,3.17,1.87,5.76v11.11h-4.45v-2.8c-.42.97-1.09,1.73-2,2.28s-1.96.82-3.16.82-2.33-.25-3.33-.75c-1-.5-1.78-1.18-2.36-2.06-.57-.87-.86-1.84-.86-2.92,0-1.35.34-2.41,1.03-3.18.69-.77,1.8-1.33,3.35-1.68,1.55-.35,3.68-.52,6.39-.52h.94v-.86c0-1.25-.27-2.14-.8-2.69-.54-.55-1.43-.82-2.67-.82-.97,0-1.99.17-3.05.5-1.06.34-2.1.8-3.12,1.4l-1.31-3.22c1.02-.65,2.26-1.18,3.7-1.61,1.45-.42,2.82-.64,4.11-.64,2.57,0,4.47.62,5.72,1.87ZM602.16,557.25c.79-.83,1.18-1.91,1.18-3.24v-.79h-.67c-1.67,0-2.97.08-3.89.22-.92.15-1.58.41-1.98.79s-.6.89-.6,1.53c0,.8.27,1.45.82,1.96.55.51,1.25.77,2.09.77,1.25,0,2.26-.42,3.05-1.25Z"/>
        <path class="cls-57" d="M628.06,544.7c1.07,1.25,1.61,3.13,1.61,5.65v11.22h-4.67v-10.96c0-1.42-.27-2.46-.8-3.1-.54-.65-1.38-.97-2.52-.97-1.35,0-2.42.42-3.23,1.27-.81.85-1.22,1.98-1.22,3.4v10.36h-4.67v-18.29h4.56v2.73c.62-1.02,1.46-1.81,2.51-2.36,1.05-.55,2.23-.82,3.55-.82,2.19,0,3.83.62,4.9,1.87Z"/>
        <path class="cls-57" d="M517.72,571.61v26.37h-4.26v-17.43l-6.96,13.16h-3.22l-6.99-12.98.04,17.24h-4.26v-26.37h3.81l9.05,17.24,9.01-17.24h3.78Z"/>
        <path class="cls-57" d="M526.45,597.11c-1.41-.77-2.5-1.88-3.27-3.33-.77-1.45-1.16-3.13-1.16-5.05s.39-3.6,1.16-5.03,1.86-2.54,3.27-3.31c1.41-.77,3.05-1.16,4.92-1.16s3.51.39,4.92,1.16c1.41.77,2.49,1.88,3.25,3.31s1.14,3.11,1.14,5.03-.38,3.6-1.14,5.05c-.76,1.45-1.84,2.56-3.25,3.33-1.41.77-3.05,1.16-4.92,1.16s-3.51-.39-4.92-1.16ZM534.81,593.15c.8-1,1.2-2.47,1.2-4.41s-.4-3.38-1.2-4.39c-.8-1.01-1.94-1.51-3.44-1.51s-2.65.5-3.46,1.51c-.81,1.01-1.22,2.47-1.22,4.39s.4,3.42,1.2,4.41,1.95,1.5,3.44,1.5,2.68-.5,3.48-1.5Z"/>
        <path class="cls-57" d="M555.49,594.64l-.22,3.48c-.75.08-1.43.11-2.06.11-2.57,0-4.46-.59-5.68-1.78-1.22-1.18-1.83-2.95-1.83-5.29v-7.96h-3.52v-3.52h3.52v-5.46h4.67v5.46h4.82v3.52h-4.82v7.89c0,2.44,1.13,3.67,3.4,3.67.55,0,1.12-.04,1.72-.11Z"/>
        <path class="cls-57" d="M563.12,571.19v4.6h-5.16v-4.6h5.16ZM558.22,579.68h4.67v18.29h-4.67v-18.29Z"/>
        <path class="cls-57" d="M571.14,597.11c-1.41-.77-2.5-1.88-3.27-3.33-.77-1.45-1.16-3.13-1.16-5.05s.39-3.6,1.16-5.03,1.86-2.54,3.27-3.31c1.41-.77,3.05-1.16,4.92-1.16s3.51.39,4.92,1.16c1.41.77,2.49,1.88,3.25,3.31s1.14,3.11,1.14,5.03-.38,3.6-1.14,5.05c-.76,1.45-1.84,2.56-3.25,3.33-1.41.77-3.05,1.16-4.92,1.16s-3.51-.39-4.92-1.16ZM579.5,593.15c.8-1,1.2-2.47,1.2-4.41s-.4-3.38-1.2-4.39c-.8-1.01-1.94-1.51-3.44-1.51s-2.65.5-3.46,1.51c-.81,1.01-1.22,2.47-1.22,4.39s.4,3.42,1.2,4.41,1.95,1.5,3.44,1.5,2.68-.5,3.48-1.5Z"/>
        <path class="cls-57" d="M604.74,581.11c1.07,1.25,1.61,3.13,1.61,5.65v11.22h-4.67v-10.96c0-1.42-.27-2.46-.8-3.1-.54-.65-1.38-.97-2.52-.97-1.35,0-2.42.42-3.23,1.27-.81.85-1.22,1.98-1.22,3.4v10.36h-4.67v-18.29h4.56v2.73c.62-1.02,1.46-1.81,2.51-2.36,1.05-.55,2.23-.82,3.55-.82,2.19,0,3.83.62,4.9,1.87Z"/>
      </g>
      <g>
        <g>
          <g>
            <path d="M80.6,911.29h1.84v14.23h7.91v1.57h-9.75v-15.8Z"/>
            <path d="M99.98,916.98c.68.71,1.02,1.79,1.02,3.24v6.88h-1.77v-1.86c-.28.64-.72,1.14-1.3,1.49-.58.35-1.25.53-2.02.53-.7,0-1.35-.14-1.94-.43-.59-.28-1.06-.68-1.4-1.19s-.52-1.07-.52-1.68c0-.82.21-1.46.63-1.92.42-.46,1.11-.78,2.06-.99.96-.2,2.29-.3,3.99-.3h.49v-.74c0-.91-.19-1.57-.56-1.98-.37-.41-.98-.62-1.82-.62-1.25,0-2.5.39-3.74,1.17l-.61-1.32c.57-.4,1.25-.73,2.05-.98.8-.25,1.57-.37,2.32-.37,1.39,0,2.42.36,3.1,1.07ZM98.37,924.91c.57-.61.86-1.39.86-2.34v-.65h-.4c-1.32,0-2.32.06-3,.17s-1.18.3-1.47.56-.44.65-.44,1.15c0,.58.21,1.06.64,1.45.43.38.96.57,1.6.57.9,0,1.63-.3,2.21-.91Z"/>
            <path d="M110.5,917.48l-1.19.11c-1.12.1-1.93.46-2.43,1.05-.5.6-.75,1.34-.75,2.22v6.23h-1.82v-10.92h1.77v1.91c.61-1.27,1.82-1.98,3.61-2.13l.65-.04.16,1.57Z"/>
            <path d="M121.78,916.18v10.18c0,1.63-.42,2.86-1.25,3.69-.84.83-2.08,1.24-3.72,1.24-1.91,0-3.52-.49-4.82-1.48l.6-1.34c.73.48,1.42.82,2.06,1.03s1.36.31,2.15.31c1.05,0,1.84-.28,2.38-.84.54-.56.81-1.38.81-2.46v-1.93c-.31.7-.8,1.24-1.45,1.61-.65.37-1.42.56-2.3.56-.96,0-1.8-.22-2.54-.67-.74-.45-1.31-1.08-1.73-1.91-.41-.82-.62-1.77-.62-2.85s.21-2.02.62-2.85c.41-.82.99-1.46,1.73-1.91.74-.45,1.59-.67,2.54-.67.87,0,1.62.19,2.26.56.64.37,1.13.9,1.46,1.59v-1.88h1.82ZM119.07,924.22c.6-.7.9-1.66.9-2.88s-.29-2.16-.89-2.86c-.59-.7-1.42-1.04-2.48-1.04s-1.89.35-2.5,1.04c-.61.69-.91,1.65-.91,2.86s.3,2.19.91,2.88c.6.69,1.44,1.04,2.5,1.04s1.87-.35,2.47-1.04Z"/>
            <path d="M134.28,921.92h-7.98c.06,1.27.4,2.23,1.03,2.88.63.65,1.52.98,2.67.98,1.27,0,2.44-.43,3.5-1.3l.61,1.32c-.48.45-1.09.8-1.84,1.06-.75.26-1.51.39-2.29.39-1.7,0-3.04-.5-4.02-1.5s-1.47-2.38-1.47-4.15c0-1.12.22-2.11.65-2.97s1.04-1.53,1.83-2.01c.79-.48,1.68-.72,2.68-.72,1.45,0,2.58.47,3.41,1.42.82.95,1.23,2.25,1.23,3.91v.67ZM127.37,918.22c-.58.6-.92,1.44-1.02,2.53h6.34c-.03-1.11-.31-1.95-.83-2.54-.52-.59-1.25-.89-2.2-.89s-1.72.3-2.3.9Z"/>
            <path d="M150.76,916.63c.73.48,1.3,1.15,1.7,2.01s.61,1.86.61,2.99-.2,2.13-.61,2.97c-.4.84-.97,1.5-1.69,1.96-.72.46-1.57.7-2.54.7-.85,0-1.6-.19-2.23-.56-.63-.37-1.12-.9-1.45-1.59v6.03h-1.82v-14.95h1.82v1.88c.33-.69.81-1.22,1.45-1.59.63-.37,1.38-.56,2.23-.56.96,0,1.8.24,2.53.72ZM150.33,924.68c.58-.72.87-1.73.87-3.05s-.29-2.34-.87-3.08c-.58-.74-1.41-1.11-2.47-1.11s-1.88.36-2.46,1.08c-.58.72-.86,1.74-.86,3.07s.29,2.36.86,3.08,1.39,1.09,2.46,1.09,1.88-.36,2.47-1.08Z"/>
            <path d="M163.32,916.98c.68.71,1.02,1.79,1.02,3.24v6.88h-1.77v-1.86c-.28.64-.72,1.14-1.3,1.49-.58.35-1.25.53-2.02.53-.7,0-1.35-.14-1.94-.43-.59-.28-1.06-.68-1.4-1.19s-.52-1.07-.52-1.68c0-.82.21-1.46.63-1.92.42-.46,1.11-.78,2.06-.99.96-.2,2.29-.3,3.99-.3h.49v-.74c0-.91-.19-1.57-.56-1.98-.37-.41-.98-.62-1.82-.62-1.25,0-2.5.39-3.74,1.17l-.61-1.32c.57-.4,1.25-.73,2.05-.98.8-.25,1.57-.37,2.32-.37,1.39,0,2.42.36,3.1,1.07ZM161.71,924.91c.57-.61.86-1.39.86-2.34v-.65h-.4c-1.32,0-2.32.06-3,.17s-1.18.3-1.47.56-.44.65-.44,1.15c0,.58.21,1.06.64,1.45.43.38.96.57,1.6.57.9,0,1.63-.3,2.21-.91Z"/>
            <path d="M173.85,917.48l-1.19.11c-1.12.1-1.93.46-2.43,1.05-.5.6-.75,1.34-.75,2.22v6.23h-1.82v-10.92h1.77v1.91c.61-1.27,1.82-1.98,3.61-2.13l.65-.04.16,1.57Z"/>
            <path d="M182.23,925.73l-.09,1.43c-.34.06-.72.09-1.12.09-1.32,0-2.31-.34-2.97-1.03-.67-.69-1-1.64-1-2.87v-5.74h-2.13v-1.43h2.13v-3.32h1.82v3.32h3.09v1.43h-3.09v5.6c0,1.72.79,2.58,2.38,2.58.33,0,.66-.02.99-.07Z"/>
            <path d="M186.08,911.45v2.04h-2.2v-2.04h2.2ZM184.07,916.18h1.82v10.92h-1.82v-10.92Z"/>
            <path d="M191.08,926.56c-.79-.46-1.4-1.12-1.83-1.96-.43-.84-.64-1.83-.64-2.97s.22-2.13.66-2.99c.44-.86,1.06-1.53,1.86-2.01s1.74-.72,2.81-.72c.73,0,1.45.13,2.15.39s1.27.61,1.7,1.04l-.61,1.35c-1.03-.84-2.08-1.26-3.14-1.26-1.12,0-1.99.37-2.62,1.1s-.94,1.76-.94,3.09.31,2.33.94,3.05c.63.72,1.5,1.08,2.62,1.08,1.06,0,2.11-.42,3.14-1.26l.61,1.35c-.46.43-1.05.78-1.75,1.03s-1.43.38-2.17.38c-1.08,0-2.01-.23-2.8-.7Z"/>
            <path d="M200,911.29h1.82v15.8h-1.82v-15.8Z"/>
            <path d="M214.35,921.92h-7.98c.06,1.27.4,2.23,1.03,2.88.63.65,1.52.98,2.67.98,1.27,0,2.44-.43,3.5-1.3l.61,1.32c-.48.45-1.09.8-1.84,1.06-.75.26-1.51.39-2.29.39-1.7,0-3.04-.5-4.02-1.5s-1.47-2.38-1.47-4.15c0-1.12.22-2.11.65-2.97s1.04-1.53,1.83-2.01c.79-.48,1.68-.72,2.68-.72,1.45,0,2.58.47,3.41,1.42.82.95,1.23,2.25,1.23,3.91v.67ZM207.43,918.22c-.58.6-.92,1.44-1.02,2.53h6.34c-.03-1.11-.31-1.95-.83-2.54-.52-.59-1.25-.89-2.2-.89s-1.72.3-2.3.9Z"/>
          </g>
          <g>
            <circle class="cls-43" cx="145.28" cy="866.98" r="37.31"/>
            <g>
              <g>
                <line class="cls-35" x1="145.28" y1="825.23" x2="145.28" y2="827.23"/>
                <line class="cls-38" x1="145.28" y1="831.37" x2="145.28" y2="862.46"/>
                <line class="cls-35" x1="145.28" y1="864.53" x2="145.28" y2="866.53"/>
              </g>
              <g>
                <line class="cls-35" x1="182.59" y1="825.23" x2="182.59" y2="827.23"/>
                <line class="cls-38" x1="182.59" y1="831.37" x2="182.59" y2="862.46"/>
                <line class="cls-35" x1="182.59" y1="864.53" x2="182.59" y2="866.53"/>
              </g>
              <g>
                <path class="cls-44" d="M167.09,813.37h-2.05l-2.16-4.07c-.24-.43-.52-.73-.85-.91s-.76-.26-1.3-.26h-2.09v5.24h-1.84v-12.69h5.4c1.4,0,2.47.31,3.21.94.74.62,1.11,1.54,1.11,2.74,0,.97-.27,1.77-.82,2.39-.55.62-1.32,1.02-2.33,1.19.62.19,1.14.66,1.55,1.4l2.18,4.03ZM161.98,806.63c.94,0,1.63-.18,2.08-.55.45-.37.67-.93.67-1.7s-.22-1.33-.67-1.68c-.44-.35-1.14-.53-2.09-.53h-3.37v4.46h3.37Z"/>
                <path class="cls-44" d="M168.6,811.96h1.08v6.5h3.59v.9h-4.67v-7.4Z"/>
              </g>
              <g>
                <line class="cls-37" x1="146.99" y1="825.23" x2="180.88" y2="825.23"/>
                <polyline class="cls-30" points="149.73 821.8 146.3 825.23 149.73 828.66"/>
                <polyline class="cls-30" points="178.11 828.66 181.53 825.23 178.11 821.8"/>
              </g>
            </g>
          </g>
        </g>
        <g>
          <g>
            <path d="M80.41,1049.87l.72-1.41c.78.66,1.57,1.13,2.39,1.41s1.76.43,2.83.43c1.27,0,2.25-.25,2.94-.74s1.03-1.19,1.03-2.08c0-.52-.16-.95-.49-1.28-.33-.33-.76-.59-1.3-.78s-1.26-.4-2.17-.61c-1.23-.28-2.23-.58-3.01-.9-.78-.31-1.42-.76-1.91-1.34s-.73-1.34-.73-2.29.24-1.69.71-2.39c.47-.69,1.14-1.23,2.02-1.61.87-.38,1.89-.57,3.04-.57,1.09,0,2.11.17,3.06.52s1.75.84,2.41,1.48l-.7,1.41c-.75-.64-1.51-1.11-2.28-1.4-.77-.29-1.6-.44-2.5-.44-1.23,0-2.19.26-2.88.77-.7.52-1.04,1.24-1.04,2.16,0,.79.31,1.39.92,1.79.61.4,1.54.75,2.78,1.03,1.36.33,2.43.63,3.21.91.78.28,1.42.69,1.94,1.24s.77,1.29.77,2.22-.24,1.68-.71,2.35-1.15,1.19-2.03,1.56-1.91.55-3.09.55c-2.46,0-4.44-.67-5.92-2Z"/>
            <path d="M110.65,1044.82v6.86h-1.82v-6.77c0-1-.18-1.73-.53-2.2-.35-.46-.92-.7-1.69-.7-.91,0-1.63.31-2.15.92-.52.61-.78,1.45-.78,2.51v6.23h-1.82v-6.77c0-1.02-.18-1.75-.54-2.21-.36-.46-.93-.68-1.7-.68-.91,0-1.63.31-2.15.92-.52.61-.78,1.45-.78,2.51v6.23h-1.82v-10.92h1.79v1.73c.33-.64.78-1.14,1.37-1.48s1.25-.52,2.02-.52c1.69,0,2.8.72,3.34,2.15.31-.67.79-1.2,1.43-1.58.64-.38,1.37-.57,2.2-.57,2.42,0,3.63,1.44,3.63,4.33Z"/>
            <path d="M121.51,1041.56c.68.71,1.02,1.79,1.02,3.24v6.88h-1.77v-1.86c-.28.64-.72,1.14-1.3,1.49-.58.35-1.25.53-2.02.53-.7,0-1.35-.14-1.94-.43-.59-.28-1.06-.68-1.4-1.19s-.52-1.07-.52-1.68c0-.82.21-1.46.63-1.92.42-.46,1.11-.78,2.06-.99.96-.2,2.29-.3,3.99-.3h.49v-.74c0-.91-.19-1.57-.56-1.98-.37-.41-.98-.62-1.82-.62-1.25,0-2.5.39-3.74,1.17l-.61-1.32c.57-.4,1.25-.73,2.05-.98.8-.25,1.57-.37,2.32-.37,1.39,0,2.42.36,3.1,1.07ZM119.89,1049.5c.57-.61.86-1.39.86-2.34v-.65h-.4c-1.32,0-2.32.06-3,.17s-1.18.3-1.47.56-.44.65-.44,1.15c0,.58.21,1.06.64,1.45.43.38.96.57,1.6.57.9,0,1.63-.3,2.21-.91Z"/>
            <path d="M125.84,1035.88h1.82v15.8h-1.82v-15.8Z"/>
            <path d="M131.04,1035.88h1.82v15.8h-1.82v-15.8Z"/>
            <path d="M150.05,1041.21c.73.48,1.3,1.15,1.7,2.01s.61,1.86.61,2.99-.2,2.13-.61,2.97c-.4.84-.97,1.5-1.69,1.96-.72.46-1.57.7-2.54.7-.85,0-1.6-.19-2.23-.56-.63-.37-1.12-.9-1.45-1.59v6.03h-1.82v-14.95h1.82v1.88c.33-.69.81-1.22,1.45-1.59.63-.37,1.38-.56,2.23-.56.96,0,1.8.24,2.53.72ZM149.63,1049.26c.58-.72.87-1.73.87-3.05s-.29-2.34-.87-3.08c-.58-.74-1.41-1.11-2.47-1.11s-1.88.36-2.46,1.08c-.58.72-.86,1.74-.86,3.07s.29,2.36.86,3.08,1.39,1.09,2.46,1.09,1.88-.36,2.47-1.08Z"/>
            <path d="M162.62,1041.56c.68.71,1.02,1.79,1.02,3.24v6.88h-1.77v-1.86c-.28.64-.72,1.14-1.3,1.49-.58.35-1.25.53-2.02.53-.7,0-1.35-.14-1.94-.43-.59-.28-1.06-.68-1.4-1.19s-.52-1.07-.52-1.68c0-.82.21-1.46.63-1.92.42-.46,1.11-.78,2.06-.99.96-.2,2.29-.3,3.99-.3h.49v-.74c0-.91-.19-1.57-.56-1.98-.37-.41-.98-.62-1.82-.62-1.25,0-2.5.39-3.74,1.17l-.61-1.32c.57-.4,1.25-.73,2.05-.98.8-.25,1.57-.37,2.32-.37,1.39,0,2.42.36,3.1,1.07ZM161,1049.5c.57-.61.86-1.39.86-2.34v-.65h-.4c-1.32,0-2.32.06-3,.17s-1.18.3-1.47.56-.44.65-.44,1.15c0,.58.21,1.06.64,1.45.43.38.96.57,1.6.57.9,0,1.63-.3,2.21-.91Z"/>
            <path d="M173.14,1042.07l-1.19.11c-1.12.1-1.93.46-2.43,1.05-.5.6-.75,1.34-.75,2.22v6.23h-1.82v-10.92h1.77v1.91c.61-1.27,1.82-1.98,3.61-2.13l.65-.04.16,1.57Z"/>
            <path d="M181.52,1050.31l-.09,1.43c-.34.06-.72.09-1.12.09-1.32,0-2.31-.34-2.97-1.03-.67-.69-1-1.64-1-2.87v-5.74h-2.13v-1.43h2.13v-3.32h1.82v3.32h3.09v1.43h-3.09v5.6c0,1.72.79,2.58,2.38,2.58.33,0,.66-.02.99-.07Z"/>
            <path d="M185.38,1036.04v2.04h-2.2v-2.04h2.2ZM183.36,1040.77h1.82v10.92h-1.82v-10.92Z"/>
            <path d="M190.38,1051.14c-.79-.46-1.4-1.12-1.83-1.96-.43-.84-.64-1.83-.64-2.97s.22-2.13.66-2.99c.44-.86,1.06-1.53,1.86-2.01s1.74-.72,2.81-.72c.73,0,1.45.13,2.15.39s1.27.61,1.7,1.04l-.61,1.35c-1.03-.84-2.08-1.26-3.14-1.26-1.12,0-1.99.37-2.62,1.1s-.94,1.76-.94,3.09.31,2.33.94,3.05c.63.72,1.5,1.08,2.62,1.08,1.06,0,2.11-.42,3.14-1.26l.61,1.35c-.46.43-1.05.78-1.75,1.03s-1.43.38-2.17.38c-1.08,0-2.01-.23-2.8-.7Z"/>
            <path d="M199.3,1035.88h1.82v15.8h-1.82v-15.8Z"/>
            <path d="M213.64,1046.5h-7.98c.06,1.27.4,2.23,1.03,2.88.63.65,1.52.98,2.67.98,1.27,0,2.44-.43,3.5-1.3l.61,1.32c-.48.45-1.09.8-1.84,1.06-.75.26-1.51.39-2.29.39-1.7,0-3.04-.5-4.02-1.5s-1.47-2.38-1.47-4.15c0-1.12.22-2.11.65-2.97s1.04-1.53,1.83-2.01c.79-.48,1.68-.72,2.68-.72,1.45,0,2.58.47,3.41,1.42.82.95,1.23,2.25,1.23,3.91v.67ZM206.73,1042.81c-.58.6-.92,1.44-1.02,2.53h6.34c-.03-1.11-.31-1.95-.83-2.54-.52-.59-1.25-.89-2.2-.89s-1.72.3-2.3.9Z"/>
          </g>
          <g>
            <circle class="cls-57" cx="145.28" cy="1005.58" r="19.96"/>
            <g>
              <g>
                <path d="M159.78,966.86h-2.05l-2.16-4.07c-.24-.43-.52-.73-.85-.91s-.76-.26-1.3-.26h-2.09v5.24h-1.84v-12.69h5.4c1.4,0,2.47.31,3.21.94s1.11,1.54,1.11,2.74c0,.97-.27,1.77-.82,2.39s-1.32,1.02-2.33,1.19c.62.19,1.14.66,1.55,1.4l2.18,4.03ZM154.67,960.12c.94,0,1.63-.18,2.08-.55.45-.37.67-.93.67-1.7s-.22-1.33-.67-1.68c-.44-.35-1.14-.53-2.09-.53h-3.37v4.46h3.37Z"/>
                <path d="M160.84,972.27l.33-.77c.53.41,1.14.61,1.84.61.34,0,.6-.06.79-.17.18-.12.27-.28.27-.49,0-.18-.06-.33-.18-.43-.12-.1-.33-.19-.63-.26l-.85-.19c-.45-.1-.8-.28-1.03-.51-.23-.24-.35-.54-.35-.9,0-.46.19-.84.56-1.12.37-.29.87-.43,1.47-.43.36,0,.71.06,1.04.17.33.12.61.28.85.49l-.33.75c-.5-.4-1.03-.6-1.56-.6-.32,0-.58.06-.76.19s-.28.3-.28.51c0,.18.06.32.17.43s.3.19.55.25l.87.2c.5.11.86.29,1.09.52.23.23.35.54.35.92,0,.46-.19.83-.56,1.1-.37.27-.88.4-1.52.4-.89,0-1.6-.22-2.13-.65Z"/>
              </g>
              <g>
                <line class="cls-35" x1="145.28" y1="979.85" x2="145.28" y2="981.85"/>
                <line class="cls-23" x1="145.28" y1="986.2" x2="145.28" y2="1001.41"/>
                <line class="cls-35" x1="145.28" y1="1003.58" x2="145.28" y2="1005.58"/>
              </g>
              <g>
                <line class="cls-35" x1="165.24" y1="979.85" x2="165.24" y2="981.85"/>
                <line class="cls-23" x1="165.24" y1="986.2" x2="165.24" y2="1001.41"/>
                <line class="cls-35" x1="165.24" y1="1003.58" x2="165.24" y2="1005.58"/>
              </g>
              <g>
                <line class="cls-37" x1="146.62" y1="979.78" x2="164.02" y2="979.78"/>
                <polyline class="cls-30" points="149.76 976.35 146.34 979.78 149.76 983.2"/>
                <polyline class="cls-30" points="160.75 983.2 164.17 979.78 160.75 976.35"/>
              </g>
            </g>
          </g>
        </g>
      </g>
      <g>
        <path class="cls-57" d="M914.34,434.15c-1.93-1.11-3.42-2.69-4.45-4.73-1.04-2.04-1.55-4.42-1.55-7.14s.52-5.09,1.55-7.12c1.03-2.03,2.52-3.6,4.45-4.71,1.93-1.11,4.19-1.67,6.79-1.67,1.77,0,3.44.28,5.01.82,1.57.55,2.89,1.32,3.96,2.32l-1.61,3.52c-1.2-.95-2.38-1.64-3.55-2.08s-2.42-.66-3.74-.66c-2.54,0-4.51.82-5.89,2.47s-2.08,4.01-2.08,7.11.69,5.5,2.08,7.14,3.35,2.47,5.89,2.47c1.32,0,2.57-.22,3.74-.65s2.36-1.13,3.55-2.08l1.61,3.52c-1.07,1-2.39,1.77-3.96,2.32-1.57.55-3.24.82-5.01.82-2.59,0-4.86-.55-6.79-1.66Z"/>
        <path class="cls-57" d="M937.15,434.62c-1.41-.77-2.5-1.88-3.27-3.33-.77-1.45-1.16-3.13-1.16-5.05s.39-3.6,1.16-5.03,1.86-2.54,3.27-3.31c1.41-.77,3.05-1.16,4.92-1.16s3.51.39,4.92,1.16c1.41.77,2.49,1.88,3.25,3.31s1.14,3.11,1.14,5.03-.38,3.6-1.14,5.05c-.76,1.45-1.84,2.56-3.25,3.33-1.41.77-3.05,1.16-4.92,1.16s-3.51-.39-4.92-1.16ZM945.51,430.65c.8-1,1.2-2.47,1.2-4.41s-.4-3.38-1.2-4.39c-.8-1.01-1.94-1.51-3.44-1.51s-2.65.5-3.46,1.51c-.81,1.01-1.22,2.47-1.22,4.39s.4,3.42,1.2,4.41,1.95,1.5,3.44,1.5,2.68-.5,3.48-1.5Z"/>
        <path class="cls-57" d="M967.28,420.63l-2.73.26c-3.09.32-4.64,1.89-4.64,4.71v9.87h-4.67v-18.29h4.45v3.22c.95-2.19,2.9-3.39,5.87-3.59l1.42-.11.3,3.93Z"/>
        <path class="cls-57" d="M981.6,420.63l-2.73.26c-3.09.32-4.64,1.89-4.64,4.71v9.87h-4.67v-18.29h4.45v3.22c.95-2.19,2.9-3.39,5.87-3.59l1.42-.11.3,3.93Z"/>
        <path class="cls-57" d="M999.55,427.18h-12.45c.15,1.7.66,2.95,1.53,3.78.87.82,2.12,1.23,3.74,1.23,2.02,0,3.86-.65,5.54-1.94l1.35,3.22c-.85.7-1.91,1.26-3.2,1.68-1.28.42-2.57.64-3.87.64-2.99,0-5.35-.85-7.09-2.54-1.73-1.7-2.6-4.01-2.6-6.96,0-1.87.37-3.53,1.12-4.97.75-1.45,1.8-2.57,3.16-3.37,1.36-.8,2.9-1.2,4.62-1.2,2.52,0,4.51.81,5.96,2.43,1.46,1.62,2.19,3.85,2.19,6.69v1.31ZM988.5,421.23c-.76.8-1.23,1.94-1.4,3.44h8.45c-.05-1.52-.42-2.67-1.12-3.46-.7-.79-1.67-1.18-2.92-1.18s-2.25.4-3.01,1.2Z"/>
        <path class="cls-57" d="M1003.37,409.11h4.67v26.37h-4.67v-26.37Z"/>
        <path class="cls-57" d="M1026.44,418.61c1.25,1.25,1.87,3.17,1.87,5.76v11.11h-4.45v-2.8c-.42.97-1.09,1.73-2,2.28s-1.96.82-3.16.82-2.33-.25-3.33-.75c-1-.5-1.78-1.18-2.36-2.06-.57-.87-.86-1.84-.86-2.92,0-1.35.34-2.41,1.03-3.18.69-.77,1.8-1.33,3.35-1.68,1.55-.35,3.68-.52,6.39-.52h.94v-.86c0-1.25-.27-2.14-.8-2.69-.54-.55-1.43-.82-2.67-.82-.97,0-1.99.17-3.05.5-1.06.34-2.1.8-3.12,1.4l-1.31-3.22c1.02-.65,2.26-1.18,3.7-1.61,1.45-.42,2.82-.64,4.11-.64,2.57,0,4.47.62,5.72,1.87ZM1022.68,431.16c.79-.83,1.18-1.91,1.18-3.24v-.79h-.67c-1.67,0-2.97.08-3.89.22-.92.15-1.58.41-1.98.79s-.6.89-.6,1.53c0,.8.27,1.45.82,1.96.55.51,1.25.77,2.09.77,1.25,0,2.26-.42,3.05-1.25Z"/>
        <path class="cls-57" d="M1044.13,432.15l-.22,3.48c-.75.08-1.43.11-2.06.11-2.57,0-4.46-.59-5.68-1.78-1.22-1.18-1.83-2.95-1.83-5.29v-7.96h-3.52v-3.52h3.52v-5.46h4.67v5.46h4.82v3.52h-4.82v7.89c0,2.44,1.13,3.67,3.4,3.67.55,0,1.12-.04,1.72-.11Z"/>
        <path class="cls-57" d="M1050.28,434.62c-1.41-.77-2.5-1.88-3.27-3.33-.77-1.45-1.16-3.13-1.16-5.05s.39-3.6,1.16-5.03,1.86-2.54,3.27-3.31c1.41-.77,3.05-1.16,4.92-1.16s3.51.39,4.92,1.16c1.41.77,2.49,1.88,3.25,3.31s1.14,3.11,1.14,5.03-.38,3.6-1.14,5.05c-.76,1.45-1.84,2.56-3.25,3.33-1.41.77-3.05,1.16-4.92,1.16s-3.51-.39-4.92-1.16ZM1058.64,430.65c.8-1,1.2-2.47,1.2-4.41s-.4-3.38-1.2-4.39c-.8-1.01-1.94-1.51-3.44-1.51s-2.65.5-3.46,1.51c-.81,1.01-1.22,2.47-1.22,4.39s.4,3.42,1.2,4.41,1.95,1.5,3.44,1.5,2.68-.5,3.48-1.5Z"/>
        <path class="cls-57" d="M1080.4,420.63l-2.73.26c-3.09.32-4.64,1.89-4.64,4.71v9.87h-4.67v-18.29h4.45v3.22c.95-2.19,2.9-3.39,5.87-3.59l1.42-.11.3,3.93Z"/>
      </g>
      <g>
        <path class="cls-57" d="M198.32,466.58h4.82v22.4h12.3v3.96h-17.13v-26.37Z"/>
        <path class="cls-57" d="M232.23,476.08c1.25,1.25,1.87,3.17,1.87,5.76v11.11h-4.45v-2.8c-.42.97-1.09,1.73-2,2.28-.91.55-1.96.82-3.16.82s-2.33-.25-3.33-.75c-1-.5-1.78-1.18-2.36-2.06-.57-.87-.86-1.84-.86-2.92,0-1.35.34-2.41,1.03-3.18.69-.77,1.8-1.33,3.35-1.68s3.68-.52,6.39-.52h.94v-.86c0-1.25-.27-2.14-.8-2.69-.54-.55-1.43-.82-2.67-.82-.97,0-1.99.17-3.05.51s-2.1.8-3.12,1.4l-1.31-3.22c1.02-.65,2.26-1.18,3.7-1.61,1.45-.42,2.82-.64,4.11-.64,2.57,0,4.47.62,5.72,1.87ZM228.48,488.62c.79-.84,1.18-1.91,1.18-3.24v-.79h-.67c-1.67,0-2.97.08-3.89.22-.92.15-1.58.41-1.98.79-.4.38-.6.89-.6,1.53,0,.8.27,1.45.82,1.96.55.51,1.25.77,2.09.77,1.25,0,2.26-.42,3.05-1.25Z"/>
        <path class="cls-57" d="M241.12,492.64c-1.36-.4-2.51-.97-3.46-1.72l1.31-3.25c1.94,1.42,4.18,2.13,6.69,2.13,1.07,0,1.89-.17,2.45-.52.56-.35.84-.85.84-1.5,0-.55-.19-.97-.58-1.27s-1.08-.57-2.08-.82l-2.99-.67c-1.7-.37-2.95-.98-3.78-1.83-.82-.85-1.23-1.95-1.23-3.29,0-1.12.32-2.11.95-2.97.64-.86,1.52-1.53,2.66-2,1.13-.47,2.45-.71,3.95-.71,1.3,0,2.55.2,3.76.6,1.21.4,2.27.96,3.2,1.68l-1.31,3.18c-1.9-1.37-3.79-2.06-5.68-2.06-1.02,0-1.82.19-2.39.56s-.86.9-.86,1.57c0,.5.18.91.54,1.23.36.32.94.57,1.74.75l3.1.71c1.82.4,3.15,1.03,4,1.89.85.86,1.27,1.99,1.27,3.38,0,1.7-.69,3.04-2.06,4.04-1.37,1-3.23,1.49-5.57,1.49-1.62,0-3.11-.2-4.47-.6Z"/>
        <path class="cls-57" d="M273.04,484.64h-12.45c.15,1.7.66,2.95,1.53,3.78.87.82,2.12,1.23,3.74,1.23,2.02,0,3.86-.65,5.54-1.94l1.35,3.21c-.85.7-1.91,1.26-3.2,1.68s-2.57.63-3.87.63c-2.99,0-5.35-.85-7.09-2.54-1.73-1.7-2.6-4.01-2.6-6.96,0-1.87.37-3.53,1.12-4.97.75-1.45,1.8-2.57,3.16-3.37,1.36-.8,2.9-1.2,4.62-1.2,2.52,0,4.51.81,5.96,2.43,1.46,1.62,2.19,3.85,2.19,6.69v1.31ZM261.98,478.69c-.76.8-1.23,1.95-1.4,3.44h8.45c-.05-1.52-.42-2.67-1.12-3.46-.7-.79-1.67-1.18-2.92-1.18s-2.25.4-3.01,1.2Z"/>
        <path class="cls-57" d="M288.89,478.1l-2.73.26c-3.09.32-4.64,1.89-4.64,4.71v9.87h-4.67v-18.29h4.45v3.22c.95-2.19,2.9-3.39,5.87-3.59l1.42-.11.3,3.93Z"/>
      </g>
      <g>
        <polygon class="cls-54" points="200.91 341.07 164.23 351.76 164.23 451.79 306.09 451.79 327.63 439.72 327.63 341.07 200.91 341.07"/>
        <path d="M305.58,400.09h-61.11c-.04-.21-.07-.42-.12-.62l11.09-4.61c1-.42,1.47-1.56,1.06-2.56s-1.56-1.47-2.56-1.06l-11.1,4.61c-.11-.17-.22-.34-.33-.5l16.27-16.27c.77-.77.77-2.01,0-2.77s-2.01-.77-2.77,0l-16.27,16.27c-.17-.12-.35-.24-.53-.35l4.58-11.11c.41-1-.06-2.15-1.06-2.56-1-.41-2.14.06-2.56,1.06l-4.58,11.11c-.2-.04-.39-.08-.59-.11v-23c0-1.08-.88-1.96-1.96-1.96s-1.96.88-1.96,1.96v23c-.21.04-.42.07-.62.12l-4.61-11.09c-.42-1-1.56-1.48-2.56-1.06-1,.42-1.47,1.56-1.06,2.56l4.61,11.1c-.17.11-.34.22-.5.33l-16.27-16.27c-.77-.77-2.01-.77-2.77,0s-.77,2.01,0,2.77l16.27,16.27c-.12.17-.24.35-.35.53l-11.11-4.58c-1-.4-2.14.06-2.56,1.07-.41,1,.06,2.14,1.06,2.56l11.11,4.58c-.04.19-.08.39-.11.59h-23.01c-1.08,0-1.96.88-1.96,1.96s.88,1.96,1.96,1.96h23.01c.04.21.07.42.12.62l-11.09,4.61c-1,.42-1.47,1.56-1.06,2.56.31.75,1.04,1.21,1.81,1.21.25,0,.51-.05.75-.15l11.1-4.61c.11.17.22.34.33.5l-16.27,16.27c-.77.77-.77,2.01,0,2.77.38.38.88.57,1.39.57s1-.19,1.39-.57l16.27-16.27c.17.12.35.24.53.35l-4.58,11.11c-.41,1,.06,2.15,1.06,2.56.24.1.5.15.75.15.77,0,1.5-.46,1.81-1.21l4.58-11.11c.2.04.39.08.59.11v23c0,1.08.88,1.96,1.96,1.96s1.96-.88,1.96-1.96v-23c.21-.04.42-.07.62-.12l4.61,11.09c.31.75,1.04,1.21,1.81,1.21.25,0,.51-.05.75-.15,1-.42,1.47-1.56,1.06-2.56l-4.61-11.1c.17-.11.34-.22.5-.33l16.27,16.27c.38.38.88.57,1.39.57s1-.19,1.39-.57c.77-.77.77-2.01,0-2.77l-16.27-16.27c.12-.17.24-.35.35-.53l11.11,4.58c.24.1.5.15.75.15.77,0,1.5-.46,1.81-1.21.41-1-.06-2.14-1.06-2.56l-11.11-4.58c.04-.19.08-.39.11-.59h61.11v-3.92Z"/>
        <g>
          <rect class="cls-20" x="164.23" y="351.76" width="141.86" height="100.03"/>
          <polygon class="cls-20" points="327.63 439.72 306.09 451.79 306.09 351.76 327.63 341.07 327.63 439.72"/>
          <polygon class="cls-20" points="306.09 351.76 164.23 351.76 200.91 341.07 327.63 341.07 306.09 351.76"/>
        </g>
        <circle class="cls-15" cx="233.22" cy="402.05" r="7.09"/>
        <path class="cls-40" d="M320.8,382.47c-2.21,0-4,7.66-4,17.1s1.79,17.1,4,17.1h6.35v-34.2h-6.35Z"/>
        <ellipse class="cls-40" cx="327.15" cy="399.57" rx="4" ry="17.1"/>
        <g class="cls-53">
          <line class="cls-17" x1="323.15" y1="399.69" x2="480.93" y2="399.69"/>
        </g>
      </g>
      <line class="cls-17" x1="349.37" y1="399.69" x2="624.71" y2="399.69"/>
      <path class="cls-31" d="M840.83,146.3l32.02-32.82c5.64-5.79,13.38-9.05,21.47-9.05h81c16.56,0,29.99,13.43,29.99,29.99v144.16"/>
      <g>
        <polygon class="cls-16" points="810.19 99.61 715.34 164.06 715.34 226.4 779.67 249.74 865.99 163.18 866.55 109.53 810.19 99.61"/>
        <g>
          <polygon class="cls-26" points="779.67 183.92 866.55 109.53 810.19 99.61 715.34 164.06 779.67 183.92"/>
          <polygon class="cls-26" points="779.67 249.74 779.67 183.92 715.34 164.06 715.34 226.4 779.67 249.74"/>
          <polygon class="cls-26" points="779.67 249.74 779.67 183.92 866.55 109.53 865.99 163.18 779.67 249.74"/>
        </g>
        <path class="cls-39" d="M757.05,204.96c.67,8.01-3.92,14.41-10.25,14.3-6.34-.11-12.02-6.69-12.7-14.69-.67-8.01,3.92-14.41,10.25-14.3,6.34.11,12.02,6.69,12.7,14.69Z"/>
        <g>
          <path class="cls-45" d="M787.89,197.92l4.71-4.68c2.17-2.16,3.87-2.89,5.09-2.18s1.85,2.8,1.9,6.27c.05,3.46-.51,6.75-1.68,9.84-1.17,3.1-2.84,5.73-5.01,7.89l-4.71,4.68-.3-21.82ZM792.75,212.51c3.3-3.29,4.92-7.69,4.84-13.19-.08-5.49-1.77-6.59-5.07-3.3l-2.63,2.62.23,16.5,2.63-2.62Z"/>
          <path class="cls-45" d="M810.04,190.87l-6.57,6.54c.18,3.06,1.18,3.69,3,1.88,1.07-1.06,2.02-2.59,2.87-4.58l.62,1.61c-.42,1.03-.95,2.04-1.58,3.02-.63.98-1.28,1.8-1.94,2.46-1.49,1.48-2.67,1.95-3.54,1.42-.88-.53-1.33-2.01-1.37-4.45-.02-1.55.15-3.1.5-4.67.36-1.57.87-3.02,1.54-4.36.67-1.34,1.44-2.43,2.3-3.29,1.26-1.25,2.25-1.57,2.99-.97.74.61,1.12,2.08,1.15,4.41v.99ZM804.21,191.58c-.43,1.19-.68,2.53-.75,4.02l4.9-4.87c-.06-1.37-.29-2.22-.7-2.58-.41-.35-.98-.17-1.7.55-.74.73-1.32,1.69-1.75,2.88Z"/>
          <path class="cls-45" d="M817.38,188.37l-.06,2.48c-.32.4-.65.77-.99,1.11-1.21,1.2-2.11,1.62-2.72,1.24-.6-.37-.92-1.47-.94-3.28l-.1-7.3-1.81,1.8-.03-2.41,1.81-1.8-.06-4.55,1.92-1.91.06,4.55,2.55-2.54.03,2.41-2.55,2.54.1,7.18c.03,2.21.67,2.69,1.93,1.43.29-.29.58-.61.86-.95Z"/>
          <path class="cls-45" d="M826.75,174.24l-6.57,6.54c.18,3.06,1.18,3.69,3,1.88,1.07-1.06,2.02-2.59,2.87-4.59l.62,1.61c-.42,1.03-.95,2.04-1.58,3.02-.63.98-1.28,1.8-1.94,2.46-1.49,1.48-2.67,1.95-3.54,1.42-.88-.53-1.33-2.01-1.37-4.45-.02-1.55.15-3.1.5-4.67s.87-3.02,1.54-4.36c.67-1.34,1.44-2.43,2.3-3.29,1.26-1.25,2.25-1.57,2.99-.97.74.61,1.12,2.08,1.15,4.41v.99ZM820.92,174.95c-.43,1.19-.68,2.53-.75,4.02l4.9-4.87c-.06-1.36-.29-2.22-.7-2.58-.41-.35-.98-.17-1.7.55-.74.73-1.32,1.7-1.75,2.88Z"/>
          <path class="cls-45" d="M830.58,176.8c-.7.05-1.25-.32-1.64-1.12-.39-.79-.6-1.97-.62-3.54s.15-3.14.52-4.72c.37-1.58.9-3.06,1.6-4.42.7-1.36,1.51-2.51,2.45-3.45.65-.64,1.28-1.09,1.88-1.34.61-.25,1.11-.27,1.5-.04l-.56,2.82c-.85-.28-1.73.03-2.63.93-.89.88-1.58,2.05-2.07,3.48-.49,1.44-.72,3.01-.7,4.73.02,1.69.29,2.75.8,3.18.51.43,1.21.19,2.11-.71.9-.9,1.76-2.32,2.59-4.27l.62,1.67c-.4,1-.9,1.98-1.5,2.93-.6.95-1.24,1.75-1.9,2.41-.94.94-1.76,1.43-2.46,1.48Z"/>
          <path class="cls-45" d="M843.43,162.45l-.06,2.48c-.32.4-.65.77-.99,1.11-1.21,1.2-2.11,1.62-2.72,1.24-.6-.37-.92-1.47-.94-3.28l-.1-7.3-1.81,1.8-.03-2.41,1.81-1.8-.06-4.55,1.92-1.91.06,4.55,2.55-2.54.03,2.41-2.55,2.54.1,7.18c.03,2.21.67,2.69,1.93,1.44.29-.29.58-.61.86-.95Z"/>
          <path class="cls-45" d="M846.55,160.92c-.7.05-1.25-.33-1.64-1.15s-.6-2.01-.62-3.57c-.02-1.59.15-3.16.5-4.72.36-1.56.88-3,1.56-4.33.68-1.33,1.48-2.45,2.4-3.36.91-.91,1.72-1.39,2.42-1.44.7-.05,1.25.33,1.64,1.15.39.81.6,2.01.62,3.6.02,1.57-.15,3.13-.5,4.69-.36,1.56-.88,3-1.56,4.33-.68,1.33-1.48,2.45-2.4,3.36-.91.91-1.72,1.39-2.42,1.44ZM850.87,153.69c.44-1.36.65-2.91.62-4.67-.02-1.73-.27-2.83-.74-3.29-.47-.46-1.12-.28-1.96.56-.84.83-1.48,1.94-1.92,3.31-.44,1.37-.65,2.93-.63,4.66.02,1.75.27,2.86.73,3.32s1.12.26,1.97-.58c.85-.85,1.5-1.95,1.93-3.3Z"/>
          <path class="cls-45" d="M861.15,134.11l-1.16,1.34c-.91,1.05-1.56,2.16-1.95,3.33-.39,1.16-.58,2.33-.56,3.51l.12,8.39-1.92,1.92-.21-15.11,1.87-1.86.04,2.63c.47-2.27,1.47-4.25,2.99-5.95l.63-.69.17,2.5Z"/>
        </g>
      </g>
      <line class="cls-17" x1="745.58" y1="204.76" x2="543.93" y2="399.69"/>
      <g>
        <g class="cls-59">
          <polygon class="cls-45" points="515.82 198.48 463.33 215.53 463.33 363.32 463.33 477.9 463.33 478.89 564.97 494.35 616.4 459.72 616.4 349.44 616.4 204.93 515.82 198.48"/>
        </g>
        <g>
          <path class="cls-32" d="M515.82,198.48v248.23-248.23Z"/>
          <polygon class="cls-32" points="564.97 494.35 616.4 459.72 515.82 446.71 463.33 478.89 564.97 494.35"/>
          <g>
            <circle class="cls-13" cx="526.27" cy="399.15" r="8.49"/>
            <circle class="cls-7" cx="495.53" cy="387.12" r="8.49"/>
            <circle class="cls-12" cx="564.97" cy="453.61" r="8.49"/>
            <circle class="cls-10" cx="532.65" cy="452.11" r="8.49"/>
            <circle class="cls-2" cx="536.29" cy="421.89" r="8.49"/>
            <circle class="cls-6" cx="590.69" cy="435.13" r="8.49"/>
            <circle class="cls-8" cx="505.66" cy="427.6" r="8.49"/>
            <circle class="cls-14" cx="496.02" cy="438.87" r="8.49"/>
            <circle class="cls-4" cx="562.69" cy="408.14" r="8.49"/>
            <circle class="cls-9" cx="494.76" cy="416.63" r="8.49"/>
            <circle class="cls-11" cx="573.46" cy="398.48" r="8.49"/>
            <circle class="cls-3" cx="539.87" cy="368.83" r="8.49"/>
            <circle class="cls-5" cx="590.69" cy="379.66" r="8.49"/>
            <circle class="cls-1" cx="576.01" cy="434.44" r="8.49"/>
          </g>
          <polygon class="cls-56" points="564.97 494.35 564.97 375.07 463.33 363.32 463.33 477.9 564.97 494.35"/>
          <polygon class="cls-58" points="564.97 375.07 616.4 350.66 515.82 341.23 463.33 363.32 564.97 375.07"/>
          <polygon class="cls-56" points="564.97 494.35 564.97 375.07 616.4 349.44 616.4 459.72 564.97 494.35"/>
          <polygon class="cls-36" points="564.97 222.89 616.4 204.93 515.82 198.48 463.33 215.53 564.97 222.89"/>
          <line class="cls-24" x1="616.4" y1="351.89" x2="564.97" y2="373.84"/>
          <line class="cls-24" x1="463.33" y1="363.32" x2="564.97" y2="373.84"/>
          <polygon class="cls-36" points="564.97 494.35 564.97 222.89 463.33 215.53 463.33 478.89 564.97 494.35"/>
          <polygon class="cls-36" points="564.97 494.35 564.97 222.89 616.4 204.93 616.4 459.72 564.97 494.35"/>
        </g>
      </g>
      <path class="cls-44" d="M712.73,315.82c2.11,0,3.89,1.23,5.35,3.7,1.45,2.47,2.18,5.69,2.18,9.65,0,4.28-.78,7.65-2.34,10.11-1.56,2.46-3.37,3.7-5.42,3.7s-3.79-1.2-5.32-3.59-2.3-5.64-2.3-9.74.76-7.45,2.28-10,3.38-3.83,5.58-3.83ZM716.76,328.76c0-7.9-1.39-11.85-4.16-11.85s-4.28,3.95-4.28,11.85h8.44ZM708.32,329.92c0,4.09.38,7.11,1.14,9.05.76,1.94,1.79,2.92,3.08,2.92,2.79,0,4.19-3.99,4.22-11.97h-8.44Z"/>
      <g>
        <line class="cls-19" x1="745.58" y1="399.69" x2="607.99" y2="399.69"/>
        <ellipse class="cls-55" cx="608.08" cy="399.67" rx="1.83" ry="2.88"/>
        <path class="cls-51" d="M608.08,396.79c2.3.22,2.38,4.23.88,5.47-.25.2-.57.32-.88.3,2.17-.38,2.17-5.38,0-5.76h0Z"/>
      </g>
      <polyline class="cls-17" points="744.86 218.3 745.58 204.32 731.6 205.22"/>
      <g class="cls-42">
        <ellipse class="cls-18" cx="635.81" cy="343.82" rx="59.01" ry="95.39" transform="translate(-27.94 57.63) rotate(-5.08)"/>
      </g>
      <polyline class="cls-21" points="686.37 281.95 674.75 277.48 672.71 289.76"/>
      <polyline class="cls-21" points="683.22 384.9 687.94 396.42 698.27 389.48"/>
      <path class="cls-31" d="M1080.51,321.4h26.7c14.16,0,25.63,11.48,25.63,25.63v221.05"/>
      <polyline class="cls-31" points="998.56 270.31 1005.31 278.58 1012.05 270.31"/>
      <g>
        <path d="M1236.62,564.59h-201.6c-7.45,0-13.49,6.04-13.49,13.49v128.81c0,7.45,6.04,13.49,13.49,13.49h83.13v15.53h-22.03c-2.12,0-3.83,1.72-3.83,3.83h0c0,2.12,1.72,3.83,3.83,3.83h79.38c2.12,0,3.83-1.72,3.83-3.83h0c0-2.12-1.72-3.83-3.83-3.83h-22.03v-15.53h83.13c7.45,0,13.49-6.04,13.49-13.49v-128.81c0-7.45-6.04-13.49-13.49-13.49Z"/>
        <rect class="cls-46" x="1028.34" y="571.82" width="214.96" height="141.31" rx="5.33" ry="5.33"/>
        <g>
          <path class="cls-49" d="M1109.44,625.56h13.73c3.36,0,5.98.84,7.85,2.52,1.87,1.68,2.81,4.04,2.81,7.07s-.94,5.4-2.81,7.09c-1.87,1.69-4.49,2.54-7.85,2.54h-7.98v12.22h-5.75v-31.44ZM1122.46,640.36c3.95,0,5.93-1.72,5.93-5.17,0-1.75-.49-3.05-1.47-3.9-.98-.85-2.47-1.27-4.46-1.27h-7.27v10.34h7.27Z"/>
          <path class="cls-49" d="M1144.91,655.41c-2.3-1.32-4.07-3.2-5.31-5.64-1.23-2.44-1.85-5.28-1.85-8.52s.62-6.07,1.85-8.49c1.23-2.42,3-4.29,5.31-5.62,2.3-1.32,5-1.98,8.09-1.98,2.11,0,4.1.33,5.97.98,1.87.65,3.45,1.58,4.73,2.76l-1.92,4.19c-1.43-1.13-2.84-1.96-4.24-2.47-1.4-.52-2.88-.78-4.46-.78-3.03,0-5.37.98-7.02,2.94s-2.47,4.79-2.47,8.47.83,6.55,2.47,8.52,3.99,2.94,7.02,2.94c1.58,0,3.06-.26,4.46-.78s2.81-1.34,4.24-2.47l1.92,4.19c-1.28,1.19-2.85,2.11-4.73,2.76-1.87.65-3.86.98-5.97.98-3.09,0-5.79-.66-8.09-1.98Z"/>
        </g>
      </g>
      <polyline class="cls-31" points="1123.88 553.6 1132.83 564.59 1141.79 553.6"/>
      <g>
        <line class="cls-25" x1="461.12" y1="399.69" x2="470.97" y2="399.69"/>
        <g>
          <ellipse class="cls-55" cx="470.91" cy="399.69" rx="1.81" ry="2.85"/>
          <path class="cls-51" d="M470.91,396.84c2.27.22,2.34,4.18.87,5.41-.25.19-.56.31-.87.3,2.14-.37,2.14-5.33,0-5.7h0Z"/>
        </g>
      </g>
      <polyline class="cls-17" points="445.37 408.14 454.93 399.48 445.37 391.01"/>
    </g>
  </g>
</svg>